<mxfile host="65bd71144e">
    <diagram name="Export This" id="AarJFCY_fLMU2_MD_9QB">
        <mxGraphModel dx="1194" dy="849" grid="1" gridSize="10" guides="1" tooltips="1" connect="1" arrows="1" fold="1" page="1" pageScale="1" pageWidth="827" pageHeight="1169" math="0" shadow="0">
            <root>
                <mxCell id="C8DQKeFEcikc1dhSRt4z-0"/>
                <mxCell id="C8DQKeFEcikc1dhSRt4z-1" parent="C8DQKeFEcikc1dhSRt4z-0"/>
                <mxCell id="yLnJ1xm68gpDfjN_Chj1-0" value="" style="shape=agent;offsetSize=8;strokeWidth=2;" vertex="1" parent="C8DQKeFEcikc1dhSRt4z-1">
                    <mxGeometry x="170" y="160" width="1150" height="710" as="geometry"/>
                </mxCell>
                <mxCell id="C8DQKeFEcikc1dhSRt4z-2" value="Best viewed with the &lt;a href=&quot;https://github.com/ariel-bentu/tam-drawio&quot;&gt;TAM plugin&lt;/a&gt;" style="text;html=1;shape=tamPluginMissing;" vertex="1" connectable="0" parent="C8DQKeFEcikc1dhSRt4z-1">
                    <mxGeometry x="645" y="900" width="200" height="25" as="geometry"/>
                </mxCell>
                <mxCell id="vAncQiIzbzxWQngOoOJz-0" value="" style="group" vertex="1" connectable="0" parent="C8DQKeFEcikc1dhSRt4z-1">
                    <mxGeometry x="200" y="180" width="190" height="330" as="geometry"/>
                </mxCell>
                <mxCell id="vAncQiIzbzxWQngOoOJz-1" value="Frontend" style="shape=agent;offsetSize=8;strokeWidth=2;verticalAlign=bottom;" vertex="1" parent="vAncQiIzbzxWQngOoOJz-0">
                    <mxGeometry width="190" height="330" as="geometry"/>
                </mxCell>
                <mxCell id="vAncQiIzbzxWQngOoOJz-2" value="" style="shape=image;verticalLabelPosition=bottom;labelBackgroundColor=default;verticalAlign=top;aspect=fixed;imageAspect=0;image=data:image/svg+xml,PHN2ZyB4bWxucz0iaHR0cDovL3d3dy53My5vcmcvMjAwMC9zdmciIHZpZXdCb3g9IjAgMCAxMjggMTI4Ij48ZyBmaWxsPSIjNjFEQUZCIj48Y2lyY2xlIHI9IjExLjQiIGN5PSI2NCIgY3g9IjY0Ii8+PHBhdGggZD0iTTEwNy4zIDQ1LjJjLTIuMi0uOC00LjUtMS42LTYuOS0yLjMuNi0yLjQgMS4xLTQuOCAxLjUtNy4xIDIuMS0xMy4yLS4yLTIyLjUtNi42LTI2LjEtMS45LTEuMS00LTEuNi02LjQtMS42LTcgMC0xNS45IDUuMi0yNC45IDEzLjktOS04LjctMTcuOS0xMy45LTI0LjktMTMuOS0yLjQgMC00LjUuNS02LjQgMS42LTYuNCAzLjctOC43IDEzLTYuNiAyNi4xLjQgMi4zLjkgNC43IDEuNSA3LjEtMi40LjctNC43IDEuNC02LjkgMi4zQzguMiA1MCAxLjQgNTYuNiAxLjQgNjRzNi45IDE0IDE5LjMgMTguOGMyLjIuOCA0LjUgMS42IDYuOSAyLjMtLjYgMi40LTEuMSA0LjgtMS41IDcuMS0yLjEgMTMuMi4yIDIyLjUgNi42IDI2LjEgMS45IDEuMSA0IDEuNiA2LjQgMS42IDcuMSAwIDE2LTUuMiAyNC45LTEzLjkgOSA4LjcgMTcuOSAxMy45IDI0LjkgMTMuOSAyLjQgMCA0LjUtLjUgNi40LTEuNiA2LjQtMy43IDguNy0xMyA2LjYtMjYuMS0uNC0yLjMtLjktNC43LTEuNS03LjEgMi40LS43IDQuNy0xLjQgNi45LTIuMyAxMi41LTQuOCAxOS4zLTExLjQgMTkuMy0xOC44cy02LjgtMTQtMTkuMy0xOC44ek05Mi41IDE0LjdjNC4xIDIuNCA1LjUgOS44IDMuOCAyMC4zLS4zIDIuMS0uOCA0LjMtMS40IDYuNi01LjItMS4yLTEwLjctMi0xNi41LTIuNS0zLjQtNC44LTYuOS05LjEtMTAuNC0xMyA3LjQtNy4zIDE0LjktMTIuMyAyMS0xMi4zIDEuMyAwIDIuNS4zIDMuNS45ek04MS4zIDc0Yy0xLjggMy4yLTMuOSA2LjQtNi4xIDkuNi0zLjcuMy03LjQuNC0xMS4yLjQtMy45IDAtNy42LS4xLTExLjItLjQtMi4yLTMuMi00LjItNi40LTYtOS42LTEuOS0zLjMtMy43LTYuNy01LjMtMTAgMS42LTMuMyAzLjQtNi43IDUuMy0xMCAxLjgtMy4yIDMuOS02LjQgNi4xLTkuNiAzLjctLjMgNy40LS40IDExLjItLjQgMy45IDAgNy42LjEgMTEuMi40IDIuMiAzLjIgNC4yIDYuNCA2IDkuNiAxLjkgMy4zIDMuNyA2LjcgNS4zIDEwLTEuNyAzLjMtMy40IDYuNi01LjMgMTB6bTguMy0zLjNjMS41IDMuNSAyLjcgNi45IDMuOCAxMC4zLTMuNC44LTcgMS40LTEwLjggMS45IDEuMi0xLjkgMi41LTMuOSAzLjYtNiAxLjItMi4xIDIuMy00LjIgMy40LTYuMnpNNjQgOTcuOGMtMi40LTIuNi00LjctNS40LTYuOS04LjMgMi4zLjEgNC42LjIgNi45LjIgMi4zIDAgNC42LS4xIDYuOS0uMi0yLjIgMi45LTQuNSA1LjctNi45IDguM3ptLTE4LjYtMTVjLTMuOC0uNS03LjQtMS4xLTEwLjgtMS45IDEuMS0zLjMgMi4zLTYuOCAzLjgtMTAuMyAxLjEgMiAyLjIgNC4xIDMuNCA2LjEgMS4yIDIuMiAyLjQgNC4xIDMuNiA2LjF6bS03LTI1LjVjLTEuNS0zLjUtMi43LTYuOS0zLjgtMTAuMyAzLjQtLjggNy0xLjQgMTAuOC0xLjktMS4yIDEuOS0yLjUgMy45LTMuNiA2LTEuMiAyLjEtMi4zIDQuMi0zLjQgNi4yek02NCAzMC4yYzIuNCAyLjYgNC43IDUuNCA2LjkgOC4zLTIuMy0uMS00LjYtLjItNi45LS4yLTIuMyAwLTQuNi4xLTYuOS4yIDIuMi0yLjkgNC41LTUuNyA2LjktOC4zem0yMi4yIDIxbC0zLjYtNmMzLjguNSA3LjQgMS4xIDEwLjggMS45LTEuMSAzLjMtMi4zIDYuOC0zLjggMTAuMy0xLjEtMi4xLTIuMi00LjItMy40LTYuMnpNMzEuNyAzNWMtMS43LTEwLjUtLjMtMTcuOSAzLjgtMjAuMyAxLS42IDIuMi0uOSAzLjUtLjkgNiAwIDEzLjUgNC45IDIxIDEyLjMtMy41IDMuOC03IDguMi0xMC40IDEzLTUuOC41LTExLjMgMS40LTE2LjUgMi41LS42LTIuMy0xLTQuNS0xLjQtNi42ek03IDY0YzAtNC43IDUuNy05LjcgMTUuNy0xMy40IDItLjggNC4yLTEuNSA2LjQtMi4xIDEuNiA1IDMuNiAxMC4zIDYgMTUuNi0yLjQgNS4zLTQuNSAxMC41LTYgMTUuNUMxNS4zIDc1LjYgNyA2OS42IDcgNjR6bTI4LjUgNDkuM2MtNC4xLTIuNC01LjUtOS44LTMuOC0yMC4zLjMtMi4xLjgtNC4zIDEuNC02LjYgNS4yIDEuMiAxMC43IDIgMTYuNSAyLjUgMy40IDQuOCA2LjkgOS4xIDEwLjQgMTMtNy40IDcuMy0xNC45IDEyLjMtMjEgMTIuMy0xLjMgMC0yLjUtLjMtMy41LS45ek05Ni4zIDkzYzEuNyAxMC41LjMgMTcuOS0zLjggMjAuMy0xIC42LTIuMi45LTMuNS45LTYgMC0xMy41LTQuOS0yMS0xMi4zIDMuNS0zLjggNy04LjIgMTAuNC0xMyA1LjgtLjUgMTEuMy0xLjQgMTYuNS0yLjUuNiAyLjMgMSA0LjUgMS40IDYuNnptOS0xNS42Yy0yIC44LTQuMiAxLjUtNi40IDIuMS0xLjYtNS0zLjYtMTAuMy02LTE1LjYgMi40LTUuMyA0LjUtMTAuNSA2LTE1LjUgMTMuOCA0IDIyLjEgMTAgMjIuMSAxNS42IDAgNC43LTUuOCA5LjctMTUuNyAxMy40eiIvPjwvZz48L3N2Zz4=;" vertex="1" parent="vAncQiIzbzxWQngOoOJz-0">
                    <mxGeometry x="40" y="10" width="100" height="100" as="geometry"/>
                </mxCell>
                <mxCell id="vAncQiIzbzxWQngOoOJz-3" value="" style="shape=image;verticalLabelPosition=bottom;labelBackgroundColor=default;verticalAlign=top;aspect=fixed;imageAspect=0;image=data:image/svg+xml,PHN2ZyB4bWxucz0iaHR0cDovL3d3dy53My5vcmcvMjAwMC9zdmciIHZpZXdCb3g9IjAgMCAxMjggMTI4Ij48cGF0aCBkPSJNMTkuMDM3IDExMy44NzZMOS4wMzIgMS42NjFoMTA5LjkzNmwtMTAuMDE2IDExMi4xOTgtNDUuMDE5IDEyLjQ4eiIgZmlsbD0iI0U0NEQyNiIvPjxwYXRoIGQ9Ik02NCAxMTYuOGwzNi4zNzgtMTAuMDg2IDguNTU5LTk1Ljg3OEg2NHoiIGZpbGw9IiNGMTY1MjkiLz48cGF0aCBkPSJNNjQgNTIuNDU1SDQ1Ljc4OEw0NC41MyAzOC4zNjFINjRWMjQuNTk5SDI5LjQ4OWwuMzMgMy42OTIgMy4zODIgMzcuOTI3SDY0em0wIDM1Ljc0M2wtLjA2MS4wMTctMTUuMzI3LTQuMTQtLjk3OS0xMC45NzVIMzMuODE2bDEuOTI4IDIxLjYwOSAyOC4xOTMgNy44MjYuMDYzLS4wMTd6IiBmaWxsPSIjRUJFQkVCIi8+PHBhdGggZD0iTTYzLjk1MiA1Mi40NTV2MTMuNzYzaDE2Ljk0N2wtMS41OTcgMTcuODQ5LTE1LjM1IDQuMTQzdjE0LjMxOWwyOC4yMTUtNy44Mi4yMDctMi4zMjUgMy4yMzQtMzYuMjMzLjMzNS0zLjY5NmgtMy43MDh6bTAtMjcuODU2djEzLjc2MmgzMy4yNDRsLjI3Ni0zLjA5Mi42MjgtNi45NzguMzI5LTMuNjkyeiIgZmlsbD0iI2ZmZiIvPjwvc3ZnPg==;" vertex="1" parent="vAncQiIzbzxWQngOoOJz-0">
                    <mxGeometry x="10" y="120" width="80" height="80" as="geometry"/>
                </mxCell>
                <mxCell id="vAncQiIzbzxWQngOoOJz-4" value="" style="shape=image;verticalLabelPosition=bottom;labelBackgroundColor=default;verticalAlign=top;aspect=fixed;imageAspect=0;image=data:image/svg+xml,PHN2ZyB4bWxucz0iaHR0cDovL3d3dy53My5vcmcvMjAwMC9zdmciIHZpZXdCb3g9IjAgMCAxMjggMTI4Ij48cGF0aCBkPSJNMTguODE0IDExNC4xMjNMOC43NiAxLjM1MmgxMTAuNDhsLTEwLjA2NCAxMTIuNzU0LTQ1LjI0MyAxMi41NDMtNDUuMTE5LTEyLjUyNnoiIGZpbGw9IiMxNTcyQjYiLz48cGF0aCBkPSJNNjQuMDAxIDExNy4wNjJsMzYuNTU5LTEwLjEzNiA4LjYwMS05Ni4zNTRoLTQ1LjE2djEwNi40OXoiIGZpbGw9IiMzM0E5REMiLz48cGF0aCBkPSJNNjQuMDAxIDUxLjQyOWgxOC4zMDJsMS4yNjQtMTQuMTYzSDY0LjAwMVYyMy40MzVoMzQuNjgybC0uMzMyIDMuNzExLTMuNCAzOC4xMTRoLTMwLjk1VjUxLjQyOXoiIGZpbGw9IiNmZmYiLz48cGF0aCBkPSJNNjQuMDgzIDg3LjM0OWwtLjA2MS4wMTgtMTUuNDAzLTQuMTU5LS45ODUtMTEuMDMxSDMzLjc1MmwxLjkzNyAyMS43MTcgMjguMzMxIDcuODYzLjA2My0uMDE4di0xNC4zOXoiIGZpbGw9IiNFQkVCRUIiLz48cGF0aCBkPSJNODEuMTI3IDY0LjY3NWwtMS42NjYgMTguNTIyLTE1LjQyNiA0LjE2NHYxNC4zOWwyOC4zNTQtNy44NTguMjA4LTIuMzM3IDIuNDA2LTI2Ljg4MUg4MS4xMjd6IiBmaWxsPSIjZmZmIi8+PHBhdGggZD0iTTY0LjA0OCAyMy40MzV2MTMuODMxSDMwLjY0bC0uMjc3LTMuMTA4LS42My03LjAxMi0uMzMxLTMuNzExaDM0LjY0NnptLS4wNDcgMjcuOTk2djEzLjgzMUg0OC43OTJsLS4yNzctMy4xMDgtLjYzMS03LjAxMi0uMzMtMy43MTFoMTYuNDQ3eiIgZmlsbD0iI0VCRUJFQiIvPjwvc3ZnPg==;" vertex="1" parent="vAncQiIzbzxWQngOoOJz-0">
                    <mxGeometry x="100" y="120" width="80" height="80" as="geometry"/>
                </mxCell>
                <mxCell id="vAncQiIzbzxWQngOoOJz-5" value="" style="shape=image;verticalLabelPosition=bottom;labelBackgroundColor=default;verticalAlign=top;aspect=fixed;imageAspect=0;image=data:image/svg+xml,PHN2ZyB4bWxucz0iaHR0cDovL3d3dy53My5vcmcvMjAwMC9zdmciIHZpZXdCb3g9IjAgMCAxMjggMTI4Ij48cGF0aCBkPSJNMS40MDggMS40MDhoMTI1LjE4NHYxMjUuMTg1SDEuNDA4eiIgZmlsbD0iI0YwREI0RiIvPjxwYXRoIGQ9Ik0xMTYuMzQ3IDk2LjczNmMtLjkxNy01LjcxMS00LjY0MS0xMC41MDgtMTUuNjcyLTE0Ljk4MS0zLjgzMi0xLjc2MS04LjEwNC0zLjAyMi05LjM3Ny01LjkyNi0uNDUyLTEuNjktLjUxMi0yLjY0Mi0uMjI2LTMuNjY1LjgyMS0zLjMyIDQuNzg0LTQuMzU1IDcuOTI1LTMuNDAzIDIuMDIzLjY3OCAzLjkzOCAyLjIzNyA1LjA5MyA0LjcyNCA1LjQwMi0zLjQ5OCA1LjM5MS0zLjQ3NSA5LjE2My01Ljg3OS0xLjM4MS0yLjE0MS0yLjExOC0zLjEyOS0zLjAyMi00LjA0NS0zLjI0OS0zLjYyOS03LjY3Ni01LjQ5OC0xNC43NTYtNS4zNTVsLTMuNjg4LjQ3N2MtMy41MzQuODkzLTYuOTAyIDIuNzQ4LTguODc3IDUuMjM1LTUuOTI2IDYuNzI0LTQuMjM2IDE4LjQ5MiAyLjk3NSAyMy4zMzUgNy4xMDQgNS4zMzIgMTcuNTQgNi41NDUgMTguODczIDExLjUzMSAxLjI5NyA2LjEwNC00LjQ4NiA4LjA4LTEwLjIzNCA3LjM3OC00LjIzNi0uODgxLTYuNTkyLTMuMDM0LTkuMTM5LTYuOTQ5LTQuNjg4IDIuNzEzLTQuNjg4IDIuNzEzLTkuNTA4IDUuNDg1IDEuMTQzIDIuNDk5IDIuMzQ0IDMuNjMgNC4yNiA1Ljc5NSA5LjA2OCA5LjE5OCAzMS43NiA4Ljc0NiAzNS44My01LjE3Ni4xNjUtLjQ3OCAxLjI2MS0zLjY2Ni4zOC04LjU4MXpNNjkuNDYyIDU4Ljk0M0g1Ny43NTNsLS4wNDggMzAuMjcyYzAgNi40MzguMzMzIDEyLjM0LS43MTQgMTQuMTQ5LTEuNzEzIDMuNTU4LTYuMTUyIDMuMTE3LTguMTc1IDIuNDI3LTIuMDU5LTEuMDEyLTMuMTA2LTIuNDUxLTQuMzE5LTQuNDg1LS4zMzMtLjU4NC0uNTgzLTEuMDM2LS42NjctMS4wNzFsLTkuNTIgNS44M2MxLjU4MyAzLjI0OSAzLjkxNSA2LjA2OSA2LjkwMiA3LjkwMSA0LjQ2MiAyLjY3OCAxMC40NTkgMy40OTkgMTYuNzMxIDIuMDU5IDQuMDgyLTEuMTg5IDcuNjA0LTMuNjUyIDkuNDQ4LTcuNDAxIDIuNjY2LTQuOTE1IDIuMDk0LTEwLjg2NCAyLjA3LTE3LjQ0NC4wNi0xMC43MzUuMDAxLTIxLjQ2OC4wMDEtMzIuMjM3eiIgZmlsbD0iIzMyMzMzMCIvPjwvc3ZnPg==;" vertex="1" parent="vAncQiIzbzxWQngOoOJz-0">
                    <mxGeometry x="55" y="220" width="70" height="70" as="geometry"/>
                </mxCell>
                <mxCell id="vAncQiIzbzxWQngOoOJz-6" value="" style="group" vertex="1" connectable="0" parent="C8DQKeFEcikc1dhSRt4z-1">
                    <mxGeometry x="200" y="630" width="190" height="220" as="geometry"/>
                </mxCell>
                <mxCell id="vAncQiIzbzxWQngOoOJz-7" value="VCS" style="shape=agent;offsetSize=8;strokeWidth=2;verticalAlign=bottom;" vertex="1" parent="vAncQiIzbzxWQngOoOJz-6">
                    <mxGeometry width="190" height="220" as="geometry"/>
                </mxCell>
                <mxCell id="vAncQiIzbzxWQngOoOJz-8" value="" style="shape=image;verticalLabelPosition=bottom;labelBackgroundColor=default;verticalAlign=top;aspect=fixed;imageAspect=0;image=data:image/svg+xml,PHN2ZyB4bWxucz0iaHR0cDovL3d3dy53My5vcmcvMjAwMC9zdmciIHZpZXdCb3g9IjAgMCAxMjggMTI4Ij48ZyBmaWxsPSIjMTgxNjE2Ij48cGF0aCBkPSJNNjQgNS4xMDNjLTMzLjM0NyAwLTYwLjM4OCAyNy4wMzUtNjAuMzg4IDYwLjM4OCAwIDI2LjY4MiAxNy4zMDMgNDkuMzE3IDQxLjI5NyA1Ny4zMDMgMy4wMTcuNTYgNC4xMjUtMS4zMSA0LjEyNS0yLjkwNSAwLTEuNDQtLjA1Ni02LjE5Ny0uMDgyLTExLjI0My0xNi44IDMuNjUzLTIwLjM0NS03LjEyNS0yMC4zNDUtNy4xMjUtMi43NDctNi45OC02LjcwNS04LjgzNi02LjcwNS04LjgzNi01LjQ4LTMuNzQ4LjQxMy0zLjY3LjQxMy0zLjY3IDYuMDYzLjQyNSA5LjI1NyA2LjIyMyA5LjI1NyA2LjIyMyA1LjM4NiA5LjIzIDE0LjEyNyA2LjU2MiAxNy41NzMgNS4wMi41NDItMy45MDMgMi4xMDctNi41NjggMy44MzQtOC4wNzYtMTMuNDEzLTEuNTI1LTI3LjUxNC02LjcwNC0yNy41MTQtMjkuODQzIDAtNi41OTMgMi4zNi0xMS45OCA2LjIyMy0xNi4yMS0uNjI4LTEuNTItMi42OTUtNy42NjIuNTg0LTE1Ljk4IDAgMCA1LjA3LTEuNjIzIDE2LjYxIDYuMTlDNTMuNyAzNSA1OC44NjcgMzQuMzI3IDY0IDM0LjMwNGM1LjEzLjAyMyAxMC4zLjY5NCAxNS4xMjcgMi4wMzMgMTEuNTI2LTcuODEzIDE2LjU5LTYuMTkgMTYuNTktNi4xOSAzLjI4NyA4LjMxNyAxLjIyIDE0LjQ2LjU5MyAxNS45OCAzLjg3MiA0LjIzIDYuMjE1IDkuNjE3IDYuMjE1IDE2LjIxIDAgMjMuMTk0LTE0LjEyNyAyOC4zLTI3LjU3NCAyOS43OTYgMi4xNjcgMS44NzQgNC4wOTcgNS41NSA0LjA5NyAxMS4xODMgMCA4LjA4LS4wNyAxNC41ODMtLjA3IDE2LjU3MiAwIDEuNjA3IDEuMDg4IDMuNDkgNC4xNDggMi44OTcgMjMuOTgtNy45OTQgNDEuMjYzLTMwLjYyMiA0MS4yNjMtNTcuMjk0QzEyNC4zODggMzIuMTQgOTcuMzUgNS4xMDQgNjQgNS4xMDR6IiBjbGlwLXJ1bGU9ImV2ZW5vZGQiIGZpbGwtcnVsZT0iZXZlbm9kZCIvPjxwYXRoIGQ9Ik0yNi40ODQgOTEuODA2Yy0uMTMzLjMtLjYwNS4zOS0xLjAzNS4xODUtLjQ0LS4xOTYtLjY4NS0uNjA1LS41NDMtLjkwNi4xMy0uMzEuNjAzLS4zOTUgMS4wNC0uMTg4LjQ0LjE5Ny42OS42MS41MzcuOTF6bTIuNDQ2IDIuNzI5Yy0uMjg3LjI2Ny0uODUuMTQzLTEuMjMyLS4yOC0uMzk2LS40Mi0uNDctLjk4My0uMTc3LTEuMjU0LjI5OC0uMjY2Ljg0NC0uMTQgMS4yNC4yOC4zOTQuNDI2LjQ3Mi45ODQuMTcgMS4yNTV6TTMxLjMxMiA5OC4wMTJjLS4zNy4yNTgtLjk3Ni4wMTctMS4zNS0uNTItLjM3LS41MzgtLjM3LTEuMTgzLjAxLTEuNDQuMzczLS4yNTguOTctLjAyNSAxLjM1LjUwNy4zNjguNTQ1LjM2OCAxLjE5LS4wMSAxLjQ1MnptMy4yNjEgMy4zNjFjLS4zMy4zNjUtMS4wMzYuMjY3LTEuNTUyLS4yMy0uNTI3LS40ODctLjY3NC0xLjE4LS4zNDMtMS41NDQuMzM2LS4zNjYgMS4wNDUtLjI2NCAxLjU2NC4yMy41MjcuNDg2LjY4NiAxLjE4LjMzMyAxLjU0M3ptNC41IDEuOTUxYy0uMTQ3LjQ3My0uODI1LjY4OC0xLjUxLjQ4Ni0uNjgzLS4yMDctMS4xMy0uNzYtLjk5LTEuMjM4LjE0LS40NzcuODIzLS43IDEuNTEyLS40ODUuNjgzLjIwNiAxLjEzLjc1Ni45ODggMS4yMzd6bTQuOTQzLjM2MWMuMDE3LjQ5OC0uNTYzLjkxLTEuMjguOTItLjcyMy4wMTctMS4zMDgtLjM4Ny0xLjMxNS0uODc3IDAtLjUwMy41NjgtLjkxIDEuMjktLjkyNC43MTctLjAxMyAxLjMwNi4zODcgMS4zMDYuODh6bTQuNTk4LS43ODJjLjA4Ni40ODUtLjQxMy45ODQtMS4xMjYgMS4xMTctLjcuMTMtMS4zNS0uMTcyLTEuNDQtLjY1My0uMDg2LS40OTguNDIyLS45OTcgMS4xMjItMS4xMjYuNzE0LS4xMjMgMS4zNTQuMTcgMS40NDQuNjYzem0wIDAiLz48L2c+PC9zdmc+;" vertex="1" parent="vAncQiIzbzxWQngOoOJz-6">
                    <mxGeometry x="44.705882352941174" y="61.707317073170735" width="96.58536585365854" height="96.58536585365854" as="geometry"/>
                </mxCell>
                <mxCell id="vAncQiIzbzxWQngOoOJz-9" value="" style="group" vertex="1" connectable="0" parent="C8DQKeFEcikc1dhSRt4z-1">
                    <mxGeometry x="550" y="350" width="390" height="420" as="geometry"/>
                </mxCell>
                <mxCell id="vAncQiIzbzxWQngOoOJz-10" value="Backend" style="shape=agent;offsetSize=8;strokeWidth=2;pointerEvents=0;align=center;verticalAlign=bottom;fontFamily=Helvetica;fontSize=12;" vertex="1" parent="vAncQiIzbzxWQngOoOJz-9">
                    <mxGeometry width="389.99999999999994" height="420" as="geometry"/>
                </mxCell>
                <mxCell id="vAncQiIzbzxWQngOoOJz-11" value="" style="group" vertex="1" connectable="0" parent="vAncQiIzbzxWQngOoOJz-9">
                    <mxGeometry x="19.608938547486034" y="236.9230769230769" width="163.40782122905026" height="137.84615384615384" as="geometry"/>
                </mxCell>
                <mxCell id="vAncQiIzbzxWQngOoOJz-12" value="Virtualization" style="shape=agent;offsetSize=8;strokeWidth=2;pointerEvents=0;align=center;verticalAlign=bottom;fontFamily=Helvetica;fontSize=12;" vertex="1" parent="vAncQiIzbzxWQngOoOJz-11">
                    <mxGeometry y="8.615384615384615" width="163.40782122905026" height="129.23076923076923" as="geometry"/>
                </mxCell>
                <mxCell id="vAncQiIzbzxWQngOoOJz-13" value="" style="shape=image;verticalLabelPosition=bottom;labelBackgroundColor=default;verticalAlign=top;aspect=fixed;imageAspect=0;image=data:image/svg+xml,PHN2ZyB4bWxucz0iaHR0cDovL3d3dy53My5vcmcvMjAwMC9zdmciIHZpZXdCb3g9IjAgMCAxMjggMTI4Ij48cGF0aCBkPSJNNzMuOCA1MC44aDExLjN2MTEuNWg1LjdjMi42IDAgNS4zLS41IDcuOC0xLjMgMS4yLS40IDIuNi0xIDMuOC0xLjctMS42LTIuMS0yLjQtNC43LTIuNi03LjMtLjMtMy41LjQtOC4xIDIuOC0xMC44bDEuMi0xLjQgMS40IDEuMWMzLjYgMi45IDYuNSA2LjggNy4xIDExLjQgNC4zLTEuMyA5LjMtMSAxMy4xIDEuMmwxLjUuOS0uOCAxLjZjLTMuMiA2LjItOS45IDguMi0xNi40IDcuOC05LjggMjQuMy0zMSAzNS44LTU2LjggMzUuOC0xMy4zIDAtMjUuNS01LTMyLjUtMTYuOGwtLjEtLjItMS0yLjFjLTIuNC01LjItMy4xLTEwLjktMi42LTE2LjZsLjItMS43aDkuNlY1MC44aDExLjNWMzkuNmgyMi41VjI4LjNoMTMuNXYyMi41eiIgZmlsbD0iIzNBNEQ1NCIgY2xpcC1ydWxlPSJldmVub2RkIiBmaWxsLXJ1bGU9ImV2ZW5vZGQiLz48cGF0aCBkPSJNMTEwLjQgNTUuMWMuOC01LjktMy42LTEwLjUtNi40LTEyLjctMy4xIDMuNi0zLjYgMTMuMiAxLjMgMTcuMi0yLjggMi40LTguNSA0LjctMTQuNSA0LjdIMTguNmMtLjYgNi4yLjUgMTEuOSAzIDE2LjhsLjggMS41Yy41LjkgMS4xIDEuNyAxLjcgMi42IDMgLjIgNS43LjMgOC4yLjIgNC45LS4xIDguOS0uNyAxMi0xLjcuNS0uMi45LjEgMS4xLjUuMi41LS4xLjktLjUgMS4xLS40LjEtLjguMy0xLjMuNC0yLjQuNy01IDEuMS04LjMgMS4zaC0uNmMtMS4zLjEtMi43LjEtNC4yLjEtMS42IDAtMy4xIDAtNC45LS4xIDYgNi44IDE1LjQgMTAuOCAyNy4yIDEwLjggMjUgMCA0Ni4yLTExLjEgNTUuNS0zNS45IDYuNy43IDEzLjEtMSAxNi02LjctNC41LTIuNy0xMC41LTEuOC0xMy45LS4xeiIgZmlsbD0iIzAwQUFEQSIvPjxwYXRoIGQ9Ik0xMTAuNCA1NS4xYy44LTUuOS0zLjYtMTAuNS02LjQtMTIuNy0zLjEgMy42LTMuNiAxMy4yIDEuMyAxNy4yLTIuOCAyLjQtOC41IDQuNy0xNC41IDQuN2gtNjhjLS4zIDkuNSAzLjIgMTYuNyA5LjUgMjEgNC45LS4xIDguOS0uNyAxMi0xLjcuNS0uMi45LjEgMS4xLjUuMi41LS4xLjktLjUgMS4xLS40LjEtLjguMy0xLjMuNC0yLjQuNy01LjIgMS4yLTguNSAxLjRsLS4xLS4xYzguNSA0LjQgMjAuOCA0LjMgMzUtMS4xIDE1LjgtNi4xIDMwLjYtMTcuNyA0MC45LTMwLjktLjIuMS0uNC4xLS41LjJ6IiBmaWxsPSIjMjhCOEVCIi8+PHBhdGggZD0iTTE4LjcgNzEuOGMuNCAzLjMgMS40IDYuNCAyLjkgOS4zbC44IDEuNWMuNS45IDEuMSAxLjcgMS43IDIuNiAzIC4yIDUuNy4zIDguMi4yIDQuOS0uMSA4LjktLjcgMTItMS43LjUtLjIuOS4xIDEuMS41LjIuNS0uMS45LS41IDEuMS0uNC4xLS44LjMtMS4zLjQtMi40LjctNS4yIDEuMi04LjUgMS40aC0uNGMtMS4zLjEtMi43LjEtNC4xLjEtMS42IDAtMy4yIDAtNC45LS4xIDYgNi44IDE1LjUgMTAuOCAyNy4zIDEwLjggMjEuNCAwIDQwLTguMSA1MC44LTI2SDE4Ljd2LS4xeiIgZmlsbD0iIzAyOEJCOCIvPjxwYXRoIGQ9Ik0yMy41IDcxLjhjMS4zIDUuOCA0LjMgMTAuNCA4LjggMTMuNSA0LjktLjEgOC45LS43IDEyLTEuNy41LS4yLjkuMSAxLjEuNS4yLjUtLjEuOS0uNSAxLjEtLjQuMS0uOC4zLTEuMy40LTIuNC43LTUuMiAxLjItOC42IDEuNCA4LjUgNC40IDIwLjggNC4zIDM0LjktMS4xIDguNS0zLjMgMTYuOC04LjIgMjQuMi0xNC4xSDIzLjV6IiBmaWxsPSIjMDE5QkM2Ii8+PHBhdGggZD0iTTI4LjQgNTIuN2g5Ljh2OS44aC05Ljh2LTkuOHptLjguOGguOHY4LjFoLS44di04LjF6bTEuNCAwaC44djguMWgtLjh2LTguMXptMS41IDBoLjh2OC4xaC0uOHYtOC4xem0xLjUgMGguOHY4LjFoLS44di04LjF6bTEuNSAwaC44djguMWgtLjh2LTguMXptMS41IDBoLjh2OC4xaC0uOHYtOC4xem0zLTEyaDkuOHY5LjhoLTkuOHYtOS44em0uOS44aC44djguMWgtLjh2LTguMXptMS40IDBoLjh2OC4xaC0uOHYtOC4xem0xLjUgMGguOHY4LjFoLS44di04LjF6bTEuNSAwaC44djguMWgtLjh2LTguMXptMS40IDBoLjh2OC4xaC0uOHYtOC4xem0xLjUgMGguOHY4LjFoLS44di04LjF6IiBmaWxsPSIjMDBBQ0QzIiBjbGlwLXJ1bGU9ImV2ZW5vZGQiIGZpbGwtcnVsZT0iZXZlbm9kZCIvPjxwYXRoIGQ9Ik0zOS42IDUyLjdoOS44djkuOGgtOS44di05Ljh6bS45LjhoLjh2OC4xaC0uOHYtOC4xem0xLjQgMGguOHY4LjFoLS44di04LjF6bTEuNSAwaC44djguMWgtLjh2LTguMXptMS41IDBoLjh2OC4xaC0uOHYtOC4xem0xLjQgMGguOHY4LjFoLS44di04LjF6bTEuNSAwaC44djguMWgtLjh2LTguMXoiIGZpbGw9IiMyM0MyRUUiIGNsaXAtcnVsZT0iZXZlbm9kZCIgZmlsbC1ydWxlPSJldmVub2RkIi8+PHBhdGggZD0iTTUwLjkgNTIuN2g5Ljh2OS44aC05Ljh2LTkuOHptLjguOGguOHY4LjFoLS44di04LjF6bTEuNSAwaC44djguMWgtLjh2LTguMXptMS41IDBoLjh2OC4xaC0uOHYtOC4xem0xLjQgMGguOHY4LjFoLS44di04LjF6bTEuNSAwaC44djguMWgtLjh2LTguMXptMS41IDBoLjh2OC4xaC0uOHYtOC4xeiIgZmlsbD0iIzAwQUNEMyIgY2xpcC1ydWxlPSJldmVub2RkIiBmaWxsLXJ1bGU9ImV2ZW5vZGQiLz48cGF0aCBkPSJNNTAuOSA0MS41aDkuOHY5LjhoLTkuOHYtOS44em0uOC44aC44djguMWgtLjh2LTguMXptMS41IDBoLjh2OC4xaC0uOHYtOC4xem0xLjUgMGguOHY4LjFoLS44di04LjF6bTEuNCAwaC44djguMWgtLjh2LTguMXptMS41IDBoLjh2OC4xaC0uOHYtOC4xem0xLjUgMGguOHY4LjFoLS44di04LjF6bTMuMSAxMC40SDcydjkuOGgtOS44di05Ljh6bS44LjhoLjh2OC4xSDYzdi04LjF6bTEuNSAwaC44djguMWgtLjh2LTguMXptMS40IDBoLjh2OC4xaC0uOHYtOC4xem0xLjUgMGguOHY4LjFoLS44di04LjF6bTEuNSAwaC44djguMWgtLjh2LTguMXptMS41IDBoLjh2OC4xaC0uOHYtOC4xeiIgZmlsbD0iIzIzQzJFRSIgY2xpcC1ydWxlPSJldmVub2RkIiBmaWxsLXJ1bGU9ImV2ZW5vZGQiLz48cGF0aCBkPSJNNjIuMiA0MS41SDcydjkuOGgtOS44di05Ljh6bS44LjhoLjh2OC4xSDYzdi04LjF6bTEuNSAwaC44djguMWgtLjh2LTguMXptMS40IDBoLjh2OC4xaC0uOHYtOC4xem0xLjUgMGguOHY4LjFoLS44di04LjF6bTEuNSAwaC44djguMWgtLjh2LTguMXptMS41IDBoLjh2OC4xaC0uOHYtOC4xeiIgZmlsbD0iIzAwQUNEMyIgY2xpcC1ydWxlPSJldmVub2RkIiBmaWxsLXJ1bGU9ImV2ZW5vZGQiLz48cGF0aCBkPSJNNjIuMiAzMC4ySDcyVjQwaC05Ljh2LTkuOHptLjguOGguOHY4LjFINjNWMzF6bTEuNSAwaC44djguMWgtLjhWMzF6bTEuNCAwaC44djguMWgtLjhWMzF6bTEuNSAwaC44djguMWgtLjhWMzF6bTEuNSAwaC44djguMWgtLjhWMzF6bTEuNSAwaC44djguMWgtLjhWMzF6IiBmaWxsPSIjMjNDMkVFIiBjbGlwLXJ1bGU9ImV2ZW5vZGQiIGZpbGwtcnVsZT0iZXZlbm9kZCIvPjxwYXRoIGQ9Ik03My41IDUyLjdoOS44djkuOGgtOS44di05Ljh6bS44LjhoLjh2OC4xaC0uOHYtOC4xem0xLjQgMGguOHY4LjFoLS44di04LjF6bTEuNSAwaC44djguMWgtLjh2LTguMXptMS41IDBoLjh2OC4xaC0uOHYtOC4xem0xLjUgMGguOHY4LjFoLS44di04LjF6bTEuNSAwaC44djguMWgtLjh2LTguMXoiIGZpbGw9IiMwMEFDRDMiIGNsaXAtcnVsZT0iZXZlbm9kZCIgZmlsbC1ydWxlPSJldmVub2RkIi8+PHBhdGggZD0iTTQ4LjggNzguM2MxLjUgMCAyLjcgMS4yIDIuNyAyLjcgMCAxLjUtMS4yIDIuNy0yLjcgMi43LTEuNSAwLTIuNy0xLjItMi43LTIuNyAwLTEuNSAxLjItMi43IDIuNy0yLjciIGZpbGw9IiNENEVFRjEiIGNsaXAtcnVsZT0iZXZlbm9kZCIgZmlsbC1ydWxlPSJldmVub2RkIi8+PHBhdGggZD0iTTQ4LjggNzkuMWMuMiAwIC41IDAgLjcuMS0uMi4xLS40LjQtLjQuNyAwIC40LjQuOC44LjguMyAwIC42LS4yLjctLjQuMS4yLjEuNS4xLjcgMCAxLjEtLjkgMS45LTEuOSAxLjktMS4xIDAtMS45LS45LTEuOS0xLjkgMC0xIC44LTEuOSAxLjktMS45TTEuMSA3Mi44aDEyNS40Yy0yLjctLjctOC42LTEuNi03LjctNS4yLTUgNS43LTE2LjkgNC0yMCAxLjItMy40IDQuOS0yMyAzLTI0LjMtLjgtNC4yIDUtMTcuMyA1LTIxLjUgMC0xLjQgMy44LTIxIDUuNy0yNC4zLjgtMyAyLjgtMTUgNC41LTIwLTEuMiAxLjEgMy41LTQuOSA0LjUtNy42IDUuMiIgZmlsbD0iIzNBNEQ1NCIgY2xpcC1ydWxlPSJldmVub2RkIiBmaWxsLXJ1bGU9ImV2ZW5vZGQiLz48cGF0aCBkPSJNNTYgOTcuOGMtNi43LTMuMi0xMC4zLTcuNS0xMi40LTEyLjItMi41LjctNS41IDEuMi04LjkgMS40LTEuMy4xLTIuNy4xLTQuMS4xLTEuNyAwLTMuNCAwLTUuMi0uMSA2IDYgMTMuNiAxMC43IDI3LjUgMTAuOEg1NnoiIGZpbGw9IiNCRkRCRTAiLz48cGF0aCBkPSJNNDYuMSA4OS45Yy0uOS0xLjMtMS44LTIuOC0yLjUtNC4zLTIuNS43LTUuNSAxLjItOC45IDEuNCAyLjMgMS4yIDUuNyAyLjQgMTEuNCAyLjl6IiBmaWxsPSIjRDRFRUYxIi8+PC9zdmc+;" vertex="1" parent="vAncQiIzbzxWQngOoOJz-11">
                    <mxGeometry x="10.893854748603351" width="137.84615384615384" height="137.84615384615384" as="geometry"/>
                </mxCell>
                <mxCell id="vAncQiIzbzxWQngOoOJz-14" value="" style="group" vertex="1" connectable="0" parent="vAncQiIzbzxWQngOoOJz-9">
                    <mxGeometry x="204.804469273743" y="247.69230769230768" width="163.40782122905026" height="129.23076923076923" as="geometry"/>
                </mxCell>
                <mxCell id="vAncQiIzbzxWQngOoOJz-15" value="Message Broker" style="shape=agent;offsetSize=8;strokeWidth=2;pointerEvents=0;align=center;verticalAlign=bottom;fontFamily=Helvetica;fontSize=12;" vertex="1" parent="vAncQiIzbzxWQngOoOJz-14">
                    <mxGeometry width="163.40782122905026" height="129.23076923076923" as="geometry"/>
                </mxCell>
                <mxCell id="vAncQiIzbzxWQngOoOJz-16" value="" style="shape=image;verticalLabelPosition=bottom;labelBackgroundColor=default;verticalAlign=top;aspect=fixed;imageAspect=0;image=data:image/svg+xml,PHN2ZyB4bWxucz0iaHR0cDovL3d3dy53My5vcmcvMjAwMC9zdmciIHZpZXdCb3g9IjAgMCAxMjggMTI4Ij48cGF0aCBkPSJNMTE5LjUxNyA1MS4xODhINzkuMjkxYTMuNjQxIDMuNjQxIDAgMCAxLTMuNjQtMy42NDJWNS42MkE1LjYwNSA1LjYwNSAwIDAgMCA3MC4wMjggMEg1NS42NmE1LjYwNiA1LjYwNiAwIDAgMC01LjYyNyA1LjYydjQxLjY0NmEzLjkxMyAzLjkxMyAwIDAgMS0zLjkyIDMuOTI1bC0xMy4xODguMDQ3Yy0yLjE3NiAwLTMuOTcyLTEuNzUtMy45MjYtMy45MjZsLjA5NC00MS42ODdBNS42MDYgNS42MDYgMCAwIDAgMjMuNDY3IDBIOS4xYTUuNjEgNS42MSAwIDAgMC01LjYyNiA1LjYyNVYxMjIuOTljMCAyLjczNyAyLjIyIDUuMDEgNS4wMSA1LjAxaDExMS4wMzNhNS4wMTQgNS4wMTQgMCAwIDAgNS4wMDgtNS4wMTFWNTYuMTk1YTQuOTc1IDQuOTc1IDAgMCAwLTUuMDA4LTUuMDA3ek0xMDAuNjYgOTUuMjQyYTYuNTQ1IDYuNTQ1IDAgMCAxLTYuNTI1IDYuNTI0SDgyLjc5MWE2LjU0NSA2LjU0NSAwIDAgMS02LjUyMy02LjUyNFY4My45YTYuNTQ1IDYuNTQ1IDAgMCAxIDYuNTIzLTYuNTI0aDExLjM0M2E2LjU0NSA2LjU0NSAwIDAgMSA2LjUyNSA2LjUyM3ptMCAwIiBmaWxsPSIjZmY2NjAwIi8+PC9zdmc+;" vertex="1" parent="vAncQiIzbzxWQngOoOJz-14">
                    <mxGeometry x="34.4016465745369" y="9.23076923076923" width="93.52226720647772" height="93.52226720647772" as="geometry"/>
                </mxCell>
                <mxCell id="vAncQiIzbzxWQngOoOJz-17" value="" style="group" vertex="1" connectable="0" parent="vAncQiIzbzxWQngOoOJz-9">
                    <mxGeometry x="19.608938547486034" y="32.30769230769231" width="348.60335195530723" height="193.84615384615384" as="geometry"/>
                </mxCell>
                <mxCell id="vAncQiIzbzxWQngOoOJz-18" value="Logic" style="shape=agent;offsetSize=8;strokeWidth=2;pointerEvents=0;align=center;verticalAlign=bottom;fontFamily=Helvetica;fontSize=12;" vertex="1" parent="vAncQiIzbzxWQngOoOJz-17">
                    <mxGeometry width="348.60335195530723" height="193.84615384615384" as="geometry"/>
                </mxCell>
                <mxCell id="vAncQiIzbzxWQngOoOJz-19" value="" style="shape=image;verticalLabelPosition=bottom;labelBackgroundColor=default;verticalAlign=top;aspect=fixed;imageAspect=0;image=data:image/svg+xml,PHN2ZyB4bWxucz0iaHR0cDovL3d3dy53My5vcmcvMjAwMC9zdmciIHZpZXdCb3g9IjAgMCAxMjggMTI4Ij48cGF0aCBkPSJNNDcuNjE3IDk4LjEycy00Ljc2NyAyLjc3NCAzLjM5NyAzLjcxYzkuODkyIDEuMTMgMTQuOTQ3Ljk2OCAyNS44NDUtMS4wOTIgMCAwIDIuODcxIDEuNzk1IDYuODczIDMuMzUxLTI0LjQzOSAxMC40Ny01NS4zMDgtLjYwNy0zNi4xMTUtNS45Njl6bS0yLjk4OC0xMy42NjVzLTUuMzQ4IDMuOTU5IDIuODIzIDQuODA1YzEwLjU2NyAxLjA5MSAxOC45MSAxLjE4IDMzLjM1NC0xLjYgMCAwIDEuOTkzIDIuMDI1IDUuMTMyIDMuMTMxLTI5LjU0MiA4LjY0LTYyLjQ0Ni42OC00MS4zMDktNi4zMzZ6IiBmaWxsPSIjMDA3NEJEIi8+PHBhdGggZD0iTTY5LjgwMiA2MS4yNzFjNi4wMjUgNi45MzUtMS41OCAxMy4xNy0xLjU4IDEzLjE3czE1LjI4OS03Ljg5MSA4LjI2OS0xNy43NzdjLTYuNTU5LTkuMjE1LTExLjU4Ny0xMy43OTIgMTUuNjM1LTI5LjU4IDAgLjAwMS00Mi43MzEgMTAuNjctMjIuMzI0IDM0LjE4N3oiIGZpbGw9IiNFQTJEMkUiLz48cGF0aCBkPSJNMTAyLjEyMyAxMDguMjI5czMuNTI5IDIuOTEtMy44ODggNS4xNTljLTE0LjEwMiA0LjI3Mi01OC43MDYgNS41Ni03MS4wOTQuMTcxLTQuNDUxLTEuOTM4IDMuODk5LTQuNjI1IDYuNTI2LTUuMTkyIDIuNzM5LS41OTMgNC4zMDMtLjQ4NSA0LjMwMy0uNDg1LTQuOTUzLTMuNDg3LTMyLjAxMyA2Ljg1LTEzLjc0MyA5LjgxNSA0OS44MjEgOC4wNzYgOTAuODE3LTMuNjM3IDc3Ljg5Ni05LjQ2OHpNNDkuOTEyIDcwLjI5NHMtMjIuNjg2IDUuMzg5LTguMDMzIDcuMzQ4YzYuMTg4LjgyOCAxOC41MTguNjM4IDMwLjAxMS0uMzI2IDkuMzktLjc4OSAxOC44MTMtMi40NzQgMTguODEzLTIuNDc0cy0zLjMwOCAxLjQxOS01LjcwNCAzLjA1M2MtMjMuMDQyIDYuMDYxLTY3LjU0NCAzLjIzOC01NC43MzEtMi45NTggMTAuODMyLTUuMjM5IDE5LjY0NC00LjY0MyAxOS42NDQtNC42NDN6bTQwLjY5NyAyMi43NDdjMjMuNDIxLTEyLjE2NyAxMi41OTEtMjMuODYgNS4wMzItMjIuMjg1LTEuODQ4LjM4NS0yLjY3Ny43Mi0yLjY3Ny43MnMuNjg4LTEuMDc5IDItMS41NDNjMTQuOTUzLTUuMjU1IDI2LjQ1MSAxNS41MDMtNC44MjMgMjMuNzI1IDAtLjAwMi4zNTktLjMyNy40NjgtLjYxN3oiIGZpbGw9IiMwMDc0QkQiLz48cGF0aCBkPSJNNzYuNDkxIDEuNTg3Uzg5LjQ1OSAxNC41NjMgNjQuMTg4IDM0LjUxYy0yMC4yNjYgMTYuMDA2LTQuNjIxIDI1LjEzLS4wMDcgMzUuNTU5LTExLjgzMS0xMC42NzMtMjAuNTA5LTIwLjA3LTE0LjY4OC0yOC44MTVDNTguMDQxIDI4LjQyIDgxLjcyMiAyMi4xOTUgNzYuNDkxIDEuNTg3eiIgZmlsbD0iI0VBMkQyRSIvPjxwYXRoIGQ9Ik01Mi4yMTQgMTI2LjAyMWMyMi40NzYgMS40MzcgNTctLjggNTcuODE3LTExLjQzNiAwIDAtMS41NzEgNC4wMzItMTguNTc3IDcuMjMxLTE5LjE4NiAzLjYxMi00Mi44NTQgMy4xOTEtNTYuODg3Ljg3NCAwIC4wMDEgMi44NzUgMi4zODEgMTcuNjQ3IDMuMzMxeiIgZmlsbD0iIzAwNzRCRCIvPjwvc3ZnPg==;" vertex="1" parent="vAncQiIzbzxWQngOoOJz-17">
                    <mxGeometry x="5.71480904844766" y="6.0576923076923075" width="146.88524590163934" height="146.88524590163934" as="geometry"/>
                </mxCell>
                <mxCell id="vAncQiIzbzxWQngOoOJz-20" value="" style="shape=image;verticalLabelPosition=bottom;labelBackgroundColor=default;verticalAlign=top;aspect=fixed;imageAspect=0;image=data:image/svg+xml,PHN2ZyB4bWxucz0iaHR0cDovL3d3dy53My5vcmcvMjAwMC9zdmciIHZpZXdCb3g9IjAgMCAxMjggMTI4Ij48cGF0aCBmaWxsPSIjNzdiYzFmIiBkPSJNMTE2LjQ1MiA2LjY0M2E1OS4xMDQgNTkuMTA0IDAgMDEtNi44MzcgMTIuMTM2QTY0LjI0OSA2NC4yNDkgMCAwMDY0LjIwNS0uMDI2QzI4Ljk4NC0uMDI2IDAgMjguOTgyIDAgNjQuMjQyYTY0LjMxNiA2NC4zMTYgMCAwMDE5Ljk0NSA0Ni41NjJsMi4zNjggMi4xYTY0LjIyIDY0LjIyIDAgMDA0MS4zNTggMTUuMTIyYzMzLjQ4NyAwIDYxLjYzNy0yNi4yNCA2NC4wMjEtNTkuNjgzIDEuNzUxLTE2LjM3MS0zLjA1MS0zNy4wNzctMTEuMjQtNjEuN3pNMjkuMDY3IDExMS4xN2E1LjUgNS41IDAgMDEtNC4yNjkgMi4wMzRjLTMuMDE4IDAtNS40ODctMi40ODQtNS40ODctNS41MDIgMC0zLjAxNyAyLjQ4NS01LjUwMSA1LjQ4Ny01LjUwMSAxLjI1IDAgMi40ODUuNDMzIDMuNDUyIDEuMjM0IDIuMzUxIDEuOSAyLjcxOCA1LjM4NC44MTcgNy43MzV6bTg3LjExOS0xOS4yMzhjLTE1Ljg0MyAyMS4xMjItNDkuNjggMTQuMDAzLTcxLjM3NiAxNS4wMiAwIDAtMy44NTIuMjM0LTcuNzIxLjg2NyAwIDAgMS40NS0uNjE3IDMuMzM1LTEuMzM0IDE1LjIyNi01LjMwMSAyMi40My02LjMzNSAzMS42ODUtMTEuMDg2IDE3LjQyNy04Ljg2OSAzNC42NTQtMjguMjc0IDM4LjI0LTQ4LjQ2My02LjYzNyAxOS40MjItMjYuNzUgMzYuMTEtNDUuMDc3IDQyLjg5NS0xMi41NTcgNC42MzUtMzUuMjM4IDkuMTM2LTM1LjIzOCA5LjEzNmwtLjkxNy0uNDg0Yy0xNS40NDItNy41MTgtMTUuOTEtNDAuOTc3IDEyLjE1Ny01MS43OCAxMi4yOTEtNC43MzUgMjQuMDQ4LTIuMTM0IDM3LjMyMy01LjMwMiAxNC4xNzUtMy4zNjcgMzAuNTY4LTE0LjAwNCAzNy4yMzgtMjcuODc0IDcuNDcxIDIyLjE5IDE2LjQ2IDU2LjkzMi4zNSA3OC40MDV6Ii8+PC9zdmc+;" vertex="1" parent="vAncQiIzbzxWQngOoOJz-17">
                    <mxGeometry x="188.58869859877277" y="30.288461538461537" width="124.2875157629256" height="124.2875157629256" as="geometry"/>
                </mxCell>
                <mxCell id="vAncQiIzbzxWQngOoOJz-21" value="" style="shape=useedge;endArrow=none;edgeStyle=none;useSignPosition=up;useSignDirection=east;fontFamily=Helvetica;fontSize=12;fontColor=default;exitX=1;exitY=0.75;exitDx=0;exitDy=0;entryX=-0.005;entryY=0.179;entryDx=0;entryDy=0;entryPerimeter=0;" edge="1" parent="C8DQKeFEcikc1dhSRt4z-1" source="vAncQiIzbzxWQngOoOJz-1" target="vAncQiIzbzxWQngOoOJz-10">
                    <mxGeometry width="160" relative="1" as="geometry">
                        <mxPoint x="560" y="550" as="sourcePoint"/>
                        <mxPoint x="720" y="550" as="targetPoint"/>
                    </mxGeometry>
                </mxCell>
                <mxCell id="vAncQiIzbzxWQngOoOJz-22" value="Build/ Run" style="edgeLabel;html=1;align=center;verticalAlign=middle;resizable=0;points=[];" vertex="1" connectable="0" parent="vAncQiIzbzxWQngOoOJz-21">
                    <mxGeometry x="-0.0477" y="17" relative="1" as="geometry">
                        <mxPoint x="-15" as="offset"/>
                    </mxGeometry>
                </mxCell>
                <mxCell id="vAncQiIzbzxWQngOoOJz-23" value="" style="shape=useedge;endArrow=none;edgeStyle=none;useSignPosition=up;useSignDirection=east;fontFamily=Helvetica;fontSize=12;fontColor=default;exitX=1;exitY=0.25;exitDx=0;exitDy=0;entryX=-0.005;entryY=0.805;entryDx=0;entryDy=0;entryPerimeter=0;" edge="1" parent="C8DQKeFEcikc1dhSRt4z-1" source="vAncQiIzbzxWQngOoOJz-7" target="vAncQiIzbzxWQngOoOJz-10">
                    <mxGeometry width="160" relative="1" as="geometry">
                        <mxPoint x="610" y="570" as="sourcePoint"/>
                        <mxPoint x="770" y="570" as="targetPoint"/>
                    </mxGeometry>
                </mxCell>
                <mxCell id="vAncQiIzbzxWQngOoOJz-24" value="Event" style="edgeLabel;html=1;align=center;verticalAlign=middle;resizable=0;points=[];" vertex="1" connectable="0" parent="vAncQiIzbzxWQngOoOJz-23">
                    <mxGeometry x="-0.0563" y="21" relative="1" as="geometry">
                        <mxPoint x="-5" y="-3" as="offset"/>
                    </mxGeometry>
                </mxCell>
                <mxCell id="vAncQiIzbzxWQngOoOJz-25" value="" style="group" vertex="1" connectable="0" parent="C8DQKeFEcikc1dhSRt4z-1">
                    <mxGeometry x="1110" y="500" width="190" height="120" as="geometry"/>
                </mxCell>
                <mxCell id="vAncQiIzbzxWQngOoOJz-26" value="Database" style="rounded=1;whiteSpace=wrap;html=1;arcSize=60;strokeWidth=2;pointerEvents=0;align=center;verticalAlign=bottom;fontFamily=Helvetica;fontSize=12;" vertex="1" parent="vAncQiIzbzxWQngOoOJz-25">
                    <mxGeometry width="190" height="120" as="geometry"/>
                </mxCell>
                <mxCell id="vAncQiIzbzxWQngOoOJz-27" value="" style="shape=image;verticalLabelPosition=bottom;labelBackgroundColor=default;verticalAlign=bottom;aspect=fixed;imageAspect=0;image=data:image/svg+xml,PHN2ZyB4bWxucz0iaHR0cDovL3d3dy53My5vcmcvMjAwMC9zdmciIHZpZXdCb3g9IjAgMCAxMjggMTI4Ij48cGF0aCBkPSJNMTE2Ljk0OCA5Ny44MDdjLTYuODYzLS4xODctMTIuMTA0LjQ1Mi0xNi41ODUgMi4zNDEtMS4yNzMuNTM3LTMuMzA1LjU1Mi0zLjUxMyAyLjE0Ny43LjczMy44MDkgMS44MjkgMS4zNjUgMi43MzEgMS4wNyAxLjczIDIuODc2IDQuMDUyIDQuNDg4IDUuMjY4IDEuNzYyIDEuMzMgMy41NzcgMi43NTEgNS40NjUgMy45MDIgMy4zNTggMi4wNDcgNy4xMDcgMy4yMTcgMTAuMzQgNS4yNjggMS45MDYgMS4yMSAzLjc5OSAyLjczMyA1LjY1OCA0LjA5Ny45Mi42NzUgMS41MzcgMS43MjQgMi43MzIgMi4xNDd2LS4xOTRjLS42MjgtLjgtLjc5LTEuODk4LTEuMzY2LTIuNzMzbC0yLjUzNy0yLjUzN2MtMi40OC0zLjI5Mi01LjYyOS02LjE4NC04Ljk3Ni04LjU4NS0yLjY2OS0xLjkxNi04LjY0Mi00LjUwNC05Ljc1NS03LjYwOWwtLjE5NS0uMTk1YzEuODkyLS4yMTQgNC4xMDctLjg5OCA1Ljg1NC0xLjM2NyAyLjkzNC0uNzg2IDUuNTU2LS41ODMgOC41ODUtMS4zNjVsNC4wOTctMS4xNzF2LS43OGMtMS41MzEtMS41NzEtMi42MjMtMy42NTEtNC4yOTItNS4wNzMtNC4zNy0zLjcyLTkuMTM4LTcuNDM3LTE0LjA0OC0xMC41MzctMi43MjQtMS43MTgtNi4wODktMi44MzUtOC45NzYtNC4yOTItLjk3MS0uNDkxLTIuNjc3LS43NDYtMy4zMTgtMS41NjItMS41MTctMS45MzItMi4zNDItNC4zODItMy41MTEtNi42MzMtMi40NDktNC43MTctNC44NTQtOS44NjgtNy4wMjQtMTQuODMxLTEuNDgtMy4zODQtMi40NDctNi43Mi00LjI5My05Ljc1Ni04Ljg2LTE0LjU2Ny0xOC4zOTYtMjMuMzU4LTMzLjE2OS0zMi0zLjE0NC0xLjgzOC02LjkyOS0yLjU2My0xMC45MjktMy41MTMtMi4xNDUtLjEyOS00LjI5Mi0uMjYtNi40MzgtLjM5MS0xLjMxMS0uNTQ2LTIuNjczLTIuMTQ5LTMuOTAyLTIuOTI3QzE3LjgxMSA0LjU2NSA1LjI1Ny0yLjE2IDEuNjMzIDYuNjgyYy0yLjI4OSA1LjU4MSAzLjQyMSAxMS4wMjUgNS40NjIgMTMuODU0IDEuNDM0IDEuOTgyIDMuMjY5IDQuMjA3IDQuMjkzIDYuNDM4LjY3NCAxLjQ2Ny43OSAyLjkzOCAxLjM2NyA0LjQ4OSAxLjQxNyAzLjgyMiAyLjY1MiA3Ljk4IDQuNDg3IDExLjUxMS45MjcgMS43ODggMS45NDkgMy42NyAzLjEyMiA1LjI2OC43MTguOTgxIDEuOTUxIDEuNDEzIDIuMTQ1IDIuOTI3LTEuMjA0IDEuNjg2LTEuMjczIDQuMzA0LTEuOTUgNi40NC0zLjA1IDkuNjE1LTEuODk5IDIxLjU2NyAyLjUzNyAyOC42ODMgMS4zNiAyLjE4NiA0LjU2NyA2Ljg3MSA4Ljk3NSA1LjA3MyAzLjg1Ni0xLjU3IDIuOTk1LTYuNDM4IDQuMDk4LTEwLjczMi4yNDktLjk3My4wOTYtMS42ODkuNTg1LTIuMzQxdi4xOTVsMy41MTMgNy4wMjRjMi42IDQuMTg3IDcuMjEyIDguNTYyIDExLjEyMiAxMS41MTQgMi4wMjcgMS41MzEgMy42MjMgNC4xNzcgNi4yNDQgNS4wNzN2LS4xOTZoLS4xOTVjLS41MDgtLjc5MS0xLjMwMy0xLjExOS0xLjk1MS0xLjc1NS0xLjUyNy0xLjQ5Ny0zLjIyNS0zLjM1OC00LjQ4Ny01LjA3My0zLjU1Ni00LjgyNy02LjY5OC0xMC4xMS05LjU2MS0xNS42MDktMS4zNjgtMi42MjctMi41NTctNS41MjMtMy43MDktOC4xOTYtLjQ0NC0xLjAzLS40MzgtMi41ODktMS4zNjQtMy4xMjItMS4yNjMgMS45NTgtMy4xMjIgMy41NDItNC4wOTggNS44NTQtMS41NjEgMy42OTYtMS43NjIgOC4yMDQtMi4zNDEgMTIuODc4LS4zNDIuMTIyLS4xOS4wMzgtLjM5MS4xOTQtMi43MTgtLjY1NS0zLjY3Mi0zLjQ1Mi00LjY4My01Ljg1My0yLjU1NC02LjA3LTMuMDI5LTE1Ljg0Mi0uNzgxLTIyLjgyOS41ODItMS44MDkgMy4yMS03LjUwMSAyLjE0Ni05LjE3Mi0uNTA4LTEuNjY2LTIuMTg0LTIuNjMtMy4xMjEtMy45MDMtMS4xNjEtMS41NzQtMi4zMTktMy42NDYtMy4xMjQtNS40NjQtMi4wOS00LjczMS0zLjA2Ni0xMC4wNDQtNS4yNjctMTQuODI4LTEuMDUzLTIuMjg3LTIuODMyLTQuNjAyLTQuMjkzLTYuNjM0LTEuNjE3LTIuMjUzLTMuNDI5LTMuOTEyLTQuNjgzLTYuNjM1LS40NDYtLjk2OC0xLjA1MS0yLjUxOC0uMzkxLTMuNTEzLjIxLS42NzEuNTA4LS45NTEgMS4xNzEtMS4xNyAxLjEzMi0uODczIDQuMjg0LjI5IDUuNDYyLjc3OSAzLjEyOSAxLjMgNS43NDEgMi41MzggOC4zOTIgNC4yOTQgMS4yNzEuODQ0IDIuNTU5IDIuNDc1IDQuMDk3IDIuOTI3aDEuNzU2YzIuNzQ3LjYzMSA1LjgyNC4xOTUgOC4zOTEuOTc1IDQuNTM2IDEuMzc4IDguNjAxIDMuNTIzIDEyLjI5MiA1Ljg1NCAxMS4yNDYgNy4xMDIgMjAuNDQyIDE3LjIxIDI2LjczMiAyOS4yNjkgMS4wMTIgMS45NDIgMS40NSAzLjc5NCAyLjM0MSA1Ljg1NCAxLjc5OCA0LjE1MyA0LjA2MyA4LjQyNiA1Ljg1MiAxMi40ODggMS43ODYgNC4wNTIgMy41MjYgOC4xNDEgNi4wNSAxMS41MTMgMS4zMjcgMS43NzIgNi40NTEgMi43MjMgOC43ODEgMy43MDggMS42MzIuNjg5IDQuMzA3IDEuNDA5IDUuODU0IDIuMzQgMi45NTMgMS43ODIgNS44MTUgMy45MDMgOC41ODYgNS44NTUgMS4zODMuOTc1IDUuNjQgMy4xMTYgNS44NTIgNC44Nzl6TTI5LjcyOSAyMy40NjZjLTEuNDMxLS4wMjctMi40NDMuMTU2LTMuNTEzLjM4OXYuMTk1aC4xOTVjLjY4MyAxLjQwMiAxLjg4OCAyLjMwNiAyLjczMSAzLjUxMy42NSAxLjM2NyAxLjMwMSAyLjczMiAxLjk1MiA0LjA5N2wuMTk0LS4xOTNjMS4yMDktLjg1MyAxLjc2Mi0yLjIxNCAxLjc1NS00LjI5NC0uNDg0LS41MDktLjU1NS0xLjE0Ny0uOTc1LTEuNzU1LS41NTYtLjgxMS0xLjYzNS0xLjI3Mi0yLjMzOS0xLjk1MnoiIGZpbGw9IiMwMDYxOEEiLz48L3N2Zz4=;" vertex="1" parent="vAncQiIzbzxWQngOoOJz-25">
                    <mxGeometry x="45.22222222222217" y="10.225263157894688" width="99.55555555555556" height="99.55555555555556" as="geometry"/>
                </mxCell>
                <mxCell id="vAncQiIzbzxWQngOoOJz-28" value="" style="shape=updateedge;endArrow=none;fontFamily=Helvetica;fontSize=12;fontColor=default;exitX=1;exitY=0.5;exitDx=0;exitDy=0;entryX=0;entryY=0.5;entryDx=0;entryDy=0;" edge="1" parent="C8DQKeFEcikc1dhSRt4z-1" source="vAncQiIzbzxWQngOoOJz-10" target="vAncQiIzbzxWQngOoOJz-26">
                    <mxGeometry width="80" height="30" relative="1" as="geometry">
                        <mxPoint x="880" y="695" as="sourcePoint"/>
                        <mxPoint x="960" y="695" as="targetPoint"/>
                    </mxGeometry>
                </mxCell>
                <mxCell id="vAncQiIzbzxWQngOoOJz-29" value="Logs/ Timeseries data" style="text;html=1;align=center;verticalAlign=middle;resizable=0;points=[];autosize=1;strokeColor=none;fillColor=none;fontFamily=Helvetica;fontSize=12;fontColor=default;" vertex="1" parent="C8DQKeFEcikc1dhSRt4z-1">
                    <mxGeometry x="960" y="518" width="140" height="30" as="geometry"/>
                </mxCell>
                <mxCell id="vAncQiIzbzxWQngOoOJz-30" value="" style="group" vertex="1" connectable="0" parent="C8DQKeFEcikc1dhSRt4z-1">
                    <mxGeometry x="680" y="180" width="140" height="140" as="geometry"/>
                </mxCell>
                <mxCell id="vAncQiIzbzxWQngOoOJz-31" value="Ops" style="shape=agent;offsetSize=8;strokeWidth=2;verticalAlign=bottom;" vertex="1" parent="vAncQiIzbzxWQngOoOJz-30">
                    <mxGeometry width="140" height="140" as="geometry"/>
                </mxCell>
                <mxCell id="vAncQiIzbzxWQngOoOJz-32" value="" style="shape=image;verticalLabelPosition=bottom;labelBackgroundColor=default;verticalAlign=top;aspect=fixed;imageAspect=0;image=data:image/svg+xml,PHN2ZyB4bWxucz0iaHR0cDovL3d3dy53My5vcmcvMjAwMC9zdmciIHZpZXdCb3g9IjAgMCAxMjggMTI4Ij48cGF0aCBkPSJNMjYuNjY2IDBDMTEuOTcgMCAwIDExLjk3IDAgMjYuNjY2YzAgMTIuODcgOS4xODEgMjMuNjUxIDIxLjMzNCAyNi4xM3YzNy44N2MwIDExLjc3IDkuNjggMjEuMzM0IDIxLjMzMiAyMS4zMzRoLjE5NWMxLjMwMiA5LjAyMyA5LjEgMTYgMTguNDczIDE2QzcxLjYxMiAxMjggODAgMTE5LjYxMiA4MCAxMDkuMzM0cy04LjM4OC0xOC42NjgtMTguNjY2LTE4LjY2OGMtOS4zNzIgMC0xNy4xNyA2Ljk3Ny0xOC40NzMgMTZoLS4xOTVjLTguNzM3IDAtMTYtNy4xNTItMTYtMTZWNjMuNzc5YTE4LjUxNCAxOC41MTQgMCAwIDAgMTMuMjQgNS41NTVoMi45NTVjMS4zMDMgOS4wMjMgOS4xIDE2IDE4LjQ3MyAxNiA5LjM3MiAwIDE3LjE2OS02Ljk3NyAxOC40Ny0xNmgxMS4wNTdjMS4zMDMgOS4wMjMgOS4xIDE2IDE4LjQ3MyAxNiAxMC4yNzggMCAxOC42NjYtOC4zOSAxOC42NjYtMTguNjY4QzEyOCA1Ni4zODggMTE5LjYxMiA0OCAxMDkuMzM0IDQ4Yy05LjM3MyAwLTE3LjE3MSA2Ljk3Ny0xOC40NzMgMTZINzkuODA1Yy0xLjMwMS05LjAyMy05LjA5OC0xNi0xOC40NzEtMTZzLTE3LjE3MSA2Ljk3Ny0xOC40NzMgMTZoLTIuOTU1Yy02LjQzMyAwLTExLjc5My00LjU4OS0xMi45ODgtMTAuNjcyIDE0LjU4LS4xMzYgMjYuNDE2LTEyLjA1IDI2LjQxNi0yNi42NjJDNTMuMzM0IDExLjk3IDQxLjM2MiAwIDI2LjY2NiAwem0wIDUuMzM0QTIxLjI5MiAyMS4yOTIgMCAwIDEgNDggMjYuNjY2IDIxLjI5NCAyMS4yOTQgMCAwIDEgMjYuNjY2IDQ4IDIxLjI5MiAyMS4yOTIgMCAwIDEgNS4zMzQgMjYuNjY2IDIxLjI5IDIxLjI5IDAgMCAxIDI2LjY2NiA1LjMzNHptLTUuMjE1IDcuNTQxQzE4LjY3IDEyLjg4OSAxNiAxNS4xMjMgMTYgMTguMTY2djE3LjA0M2MwIDQuMDQzIDQuNzA5IDYuNjYzIDguMTQ1IDQuNTMzbDEzLjYzNC04LjQ1NWMzLjI1Ny0yLjAyIDMuMjc0LTcuMDAyLjAzMi05LjA0NWwtMTMuNjM1LTguNTlhNS4wMjQgNS4wMjQgMCAwIDAtMi43MjUtLjc3N3ptLS4xMTcgNS4yOTEgMTMuNjM1IDguNTg4LTEzLjYzNSA4LjQ1NVYxOC4xNjZ6bTQwIDM1LjE2OGExMy4yOSAxMy4yOSAwIDAgMSAxMy4zMzIgMTMuMzMyQTEzLjI5MyAxMy4yOTMgMCAwIDEgNjEuMzM0IDgwIDEzLjI5NCAxMy4yOTQgMCAwIDEgNDggNjYuNjY2YTEzLjI5MyAxMy4yOTMgMCAwIDEgMTMuMzM0LTEzLjMzMnptNDggMGExMy4yOSAxMy4yOSAwIDAgMSAxMy4zMzIgMTMuMzMyQTEzLjI5MyAxMy4yOTMgMCAwIDEgMTA5LjMzNCA4MCAxMy4yOTQgMTMuMjk0IDAgMCAxIDk2IDY2LjY2NmExMy4yOTMgMTMuMjkzIDAgMCAxIDEzLjMzNC0xMy4zMzJ6bS00Mi41NjggNi45NTFhMi42NjcgMi42NjcgMCAwIDAtMS44ODcuNzhsLTYuMyA2LjI5NC0yLjA5My0yLjA4NGEyLjY2NyAyLjY2NyAwIDAgMC0zLjc3MS4wMDYgMi42NjcgMi42NjcgMCAwIDAgLjAwOCAzLjc3MmwzLjk3NCAzLjk2YTIuNjY3IDIuNjY3IDAgMCAwIDMuNzY2LS4wMDFsOC4xODUtOC4xNzRhMi42NjcgMi42NjcgMCAwIDAgLjAwMi0zLjc3MiAyLjY2NyAyLjY2NyAwIDAgMC0xLjg4NC0uNzh6bTQ4IDBhMi42NjcgMi42NjcgMCAwIDAtMS44ODcuNzhsLTYuMyA2LjI5NC0yLjA5My0yLjA4NGEyLjY2NyAyLjY2NyAwIDAgMC0zLjc3MS4wMDYgMi42NjcgMi42NjcgMCAwIDAgLjAwOCAzLjc3MmwzLjk3NCAzLjk2YTIuNjY3IDIuNjY3IDAgMCAwIDMuNzY2LS4wMDFsOC4xODUtOC4xNzRhMi42NjcgMi42NjcgMCAwIDAgLjAwMi0zLjc3MiAyLjY2NyAyLjY2NyAwIDAgMC0xLjg4NC0uNzh6TTYxLjMzNCA5NmExMy4yOTMgMTMuMjkzIDAgMCAxIDEzLjMzMiAxMy4zMzQgMTMuMjkgMTMuMjkgMCAwIDEtMTMuMzMyIDEzLjMzMkExMy4yOTMgMTMuMjkzIDAgMCAxIDQ4IDEwOS4zMzQgMTMuMjk0IDEzLjI5NCAwIDAgMSA2MS4zMzQgOTZ6TTU2IDEwNS4zMzRjLTIuMTkzIDAtNCAxLjgwNy00IDQgMCAyLjE5NSAxLjgwOCA0IDQgNHM0LTEuODA1IDQtNGMwLTIuMTkzLTEuODA3LTQtNC00em0xMC42NjYgMGMtMi4xOTMgMC00IDEuODA3LTQgNCAwIDIuMTk1IDEuODA4IDQgNCA0czQtMS44MDUgNC00YzAtMi4xOTMtMS44MDctNC00LTR6TTU2IDEwOGMuNzUgMCAxLjMzNC41ODUgMS4zMzQgMS4zMzQgMCAuNzUzLS41ODMgMS4zMzItMS4zMzQgMS4zMzItLjc1IDAtMS4zMzQtLjU4LTEuMzM0LTEuMzMyIDAtLjc1LjU4NS0xLjMzNCAxLjMzNC0xLjMzNHptMTAuNjY2IDBjLjc1IDAgMS4zMzQuNTg1IDEuMzM0IDEuMzM0IDAgLjc1My0uNTgzIDEuMzMyLTEuMzM0IDEuMzMyLS43NSAwLTEuMzMyLS41OC0xLjMzMi0xLjMzMiAwLS43NS41ODMtMS4zMzQgMS4zMzItMS4zMzR6IiBmaWxsPSIjMjA4OGZmIi8+PHBhdGggZD0iTTEwOS4zMzQgOTAuNjY2Yy05LjM4MyAwLTE3LjE4OCA2Ljk5My0xOC40NzcgMTYuMDMxYTIuNjY3IDIuNjY3IDAgMCAwLS4yNjUtLjAxMWwtMi43LjA5YTIuNjY3IDIuNjY3IDAgMCAwLTIuNTc4IDIuNzUxIDIuNjY3IDIuNjY3IDAgMCAwIDIuNzUyIDIuNTc4bDIuNy0uMDg3YTIuNjY3IDIuNjY3IDAgMCAwIC4wOTctLjAwNkM5Mi4xNyAxMjEuMDI5IDk5Ljk2NSAxMjggMTA5LjMzNCAxMjhjMTAuMjc4IDAgMTguNjY2LTguMzg4IDE4LjY2Ni0xOC42NjZzLTguMzg4LTE4LjY2OC0xOC42NjYtMTguNjY4em0wIDUuMzM0YTEzLjI5MyAxMy4yOTMgMCAwIDEgMTMuMzMyIDEzLjMzNCAxMy4yOSAxMy4yOSAwIDAgMS0xMy4zMzIgMTMuMzMyQTEzLjI5MyAxMy4yOTMgMCAwIDEgOTYgMTA5LjMzNCAxMy4yOTQgMTMuMjk0IDAgMCAxIDEwOS4zMzQgOTZ6IiBmaWxsPSIjNzliOGZmIi8+PC9zdmc+;" vertex="1" parent="vAncQiIzbzxWQngOoOJz-30">
                    <mxGeometry x="23.200000000000045" y="23.19666666666666" width="93.60000000000001" height="93.60000000000001" as="geometry"/>
                </mxCell>
            </root>
        </mxGraphModel>
    </diagram>
    <diagram id="Ta23PFp4_xCt1-TW44lp" name="Tech Stack">
        <mxGraphModel dx="1194" dy="849" grid="1" gridSize="10" guides="1" tooltips="1" connect="1" arrows="1" fold="1" page="1" pageScale="1" pageWidth="827" pageHeight="1169" math="0" shadow="0">
            <root>
                <mxCell id="0"/>
                <mxCell id="1" parent="0"/>
                <mxCell id="0.0" value="Best viewed with the &lt;a href=&quot;https://github.com/ariel-bentu/tam-drawio&quot;&gt;TAM plugin&lt;/a&gt;" style="text;html=1;shape=tamPluginMissing;" parent="1" vertex="1" connectable="0">
                    <mxGeometry x="650" y="880" width="200" height="25" as="geometry"/>
                </mxCell>
                <mxCell id="10" value="" style="group" parent="1" vertex="1" connectable="0">
                    <mxGeometry x="200" y="180" width="190" height="330" as="geometry"/>
                </mxCell>
                <mxCell id="3" value="Frontend" style="shape=agent;offsetSize=8;strokeWidth=2;verticalAlign=bottom;" parent="10" vertex="1">
                    <mxGeometry width="190" height="330" as="geometry"/>
                </mxCell>
                <mxCell id="4" value="" style="shape=image;verticalLabelPosition=bottom;labelBackgroundColor=default;verticalAlign=top;aspect=fixed;imageAspect=0;image=data:image/svg+xml,PHN2ZyB4bWxucz0iaHR0cDovL3d3dy53My5vcmcvMjAwMC9zdmciIHZpZXdCb3g9IjAgMCAxMjggMTI4Ij48ZyBmaWxsPSIjNjFEQUZCIj48Y2lyY2xlIHI9IjExLjQiIGN5PSI2NCIgY3g9IjY0Ii8+PHBhdGggZD0iTTEwNy4zIDQ1LjJjLTIuMi0uOC00LjUtMS42LTYuOS0yLjMuNi0yLjQgMS4xLTQuOCAxLjUtNy4xIDIuMS0xMy4yLS4yLTIyLjUtNi42LTI2LjEtMS45LTEuMS00LTEuNi02LjQtMS42LTcgMC0xNS45IDUuMi0yNC45IDEzLjktOS04LjctMTcuOS0xMy45LTI0LjktMTMuOS0yLjQgMC00LjUuNS02LjQgMS42LTYuNCAzLjctOC43IDEzLTYuNiAyNi4xLjQgMi4zLjkgNC43IDEuNSA3LjEtMi40LjctNC43IDEuNC02LjkgMi4zQzguMiA1MCAxLjQgNTYuNiAxLjQgNjRzNi45IDE0IDE5LjMgMTguOGMyLjIuOCA0LjUgMS42IDYuOSAyLjMtLjYgMi40LTEuMSA0LjgtMS41IDcuMS0yLjEgMTMuMi4yIDIyLjUgNi42IDI2LjEgMS45IDEuMSA0IDEuNiA2LjQgMS42IDcuMSAwIDE2LTUuMiAyNC45LTEzLjkgOSA4LjcgMTcuOSAxMy45IDI0LjkgMTMuOSAyLjQgMCA0LjUtLjUgNi40LTEuNiA2LjQtMy43IDguNy0xMyA2LjYtMjYuMS0uNC0yLjMtLjktNC43LTEuNS03LjEgMi40LS43IDQuNy0xLjQgNi45LTIuMyAxMi41LTQuOCAxOS4zLTExLjQgMTkuMy0xOC44cy02LjgtMTQtMTkuMy0xOC44ek05Mi41IDE0LjdjNC4xIDIuNCA1LjUgOS44IDMuOCAyMC4zLS4zIDIuMS0uOCA0LjMtMS40IDYuNi01LjItMS4yLTEwLjctMi0xNi41LTIuNS0zLjQtNC44LTYuOS05LjEtMTAuNC0xMyA3LjQtNy4zIDE0LjktMTIuMyAyMS0xMi4zIDEuMyAwIDIuNS4zIDMuNS45ek04MS4zIDc0Yy0xLjggMy4yLTMuOSA2LjQtNi4xIDkuNi0zLjcuMy03LjQuNC0xMS4yLjQtMy45IDAtNy42LS4xLTExLjItLjQtMi4yLTMuMi00LjItNi40LTYtOS42LTEuOS0zLjMtMy43LTYuNy01LjMtMTAgMS42LTMuMyAzLjQtNi43IDUuMy0xMCAxLjgtMy4yIDMuOS02LjQgNi4xLTkuNiAzLjctLjMgNy40LS40IDExLjItLjQgMy45IDAgNy42LjEgMTEuMi40IDIuMiAzLjIgNC4yIDYuNCA2IDkuNiAxLjkgMy4zIDMuNyA2LjcgNS4zIDEwLTEuNyAzLjMtMy40IDYuNi01LjMgMTB6bTguMy0zLjNjMS41IDMuNSAyLjcgNi45IDMuOCAxMC4zLTMuNC44LTcgMS40LTEwLjggMS45IDEuMi0xLjkgMi41LTMuOSAzLjYtNiAxLjItMi4xIDIuMy00LjIgMy40LTYuMnpNNjQgOTcuOGMtMi40LTIuNi00LjctNS40LTYuOS04LjMgMi4zLjEgNC42LjIgNi45LjIgMi4zIDAgNC42LS4xIDYuOS0uMi0yLjIgMi45LTQuNSA1LjctNi45IDguM3ptLTE4LjYtMTVjLTMuOC0uNS03LjQtMS4xLTEwLjgtMS45IDEuMS0zLjMgMi4zLTYuOCAzLjgtMTAuMyAxLjEgMiAyLjIgNC4xIDMuNCA2LjEgMS4yIDIuMiAyLjQgNC4xIDMuNiA2LjF6bS03LTI1LjVjLTEuNS0zLjUtMi43LTYuOS0zLjgtMTAuMyAzLjQtLjggNy0xLjQgMTAuOC0xLjktMS4yIDEuOS0yLjUgMy45LTMuNiA2LTEuMiAyLjEtMi4zIDQuMi0zLjQgNi4yek02NCAzMC4yYzIuNCAyLjYgNC43IDUuNCA2LjkgOC4zLTIuMy0uMS00LjYtLjItNi45LS4yLTIuMyAwLTQuNi4xLTYuOS4yIDIuMi0yLjkgNC41LTUuNyA2LjktOC4zem0yMi4yIDIxbC0zLjYtNmMzLjguNSA3LjQgMS4xIDEwLjggMS45LTEuMSAzLjMtMi4zIDYuOC0zLjggMTAuMy0xLjEtMi4xLTIuMi00LjItMy40LTYuMnpNMzEuNyAzNWMtMS43LTEwLjUtLjMtMTcuOSAzLjgtMjAuMyAxLS42IDIuMi0uOSAzLjUtLjkgNiAwIDEzLjUgNC45IDIxIDEyLjMtMy41IDMuOC03IDguMi0xMC40IDEzLTUuOC41LTExLjMgMS40LTE2LjUgMi41LS42LTIuMy0xLTQuNS0xLjQtNi42ek03IDY0YzAtNC43IDUuNy05LjcgMTUuNy0xMy40IDItLjggNC4yLTEuNSA2LjQtMi4xIDEuNiA1IDMuNiAxMC4zIDYgMTUuNi0yLjQgNS4zLTQuNSAxMC41LTYgMTUuNUMxNS4zIDc1LjYgNyA2OS42IDcgNjR6bTI4LjUgNDkuM2MtNC4xLTIuNC01LjUtOS44LTMuOC0yMC4zLjMtMi4xLjgtNC4zIDEuNC02LjYgNS4yIDEuMiAxMC43IDIgMTYuNSAyLjUgMy40IDQuOCA2LjkgOS4xIDEwLjQgMTMtNy40IDcuMy0xNC45IDEyLjMtMjEgMTIuMy0xLjMgMC0yLjUtLjMtMy41LS45ek05Ni4zIDkzYzEuNyAxMC41LjMgMTcuOS0zLjggMjAuMy0xIC42LTIuMi45LTMuNS45LTYgMC0xMy41LTQuOS0yMS0xMi4zIDMuNS0zLjggNy04LjIgMTAuNC0xMyA1LjgtLjUgMTEuMy0xLjQgMTYuNS0yLjUuNiAyLjMgMSA0LjUgMS40IDYuNnptOS0xNS42Yy0yIC44LTQuMiAxLjUtNi40IDIuMS0xLjYtNS0zLjYtMTAuMy02LTE1LjYgMi40LTUuMyA0LjUtMTAuNSA2LTE1LjUgMTMuOCA0IDIyLjEgMTAgMjIuMSAxNS42IDAgNC43LTUuOCA5LjctMTUuNyAxMy40eiIvPjwvZz48L3N2Zz4=;" parent="10" vertex="1">
                    <mxGeometry x="40" y="10" width="100" height="100" as="geometry"/>
                </mxCell>
                <mxCell id="6" value="" style="shape=image;verticalLabelPosition=bottom;labelBackgroundColor=default;verticalAlign=top;aspect=fixed;imageAspect=0;image=data:image/svg+xml,PHN2ZyB4bWxucz0iaHR0cDovL3d3dy53My5vcmcvMjAwMC9zdmciIHZpZXdCb3g9IjAgMCAxMjggMTI4Ij48cGF0aCBkPSJNMTkuMDM3IDExMy44NzZMOS4wMzIgMS42NjFoMTA5LjkzNmwtMTAuMDE2IDExMi4xOTgtNDUuMDE5IDEyLjQ4eiIgZmlsbD0iI0U0NEQyNiIvPjxwYXRoIGQ9Ik02NCAxMTYuOGwzNi4zNzgtMTAuMDg2IDguNTU5LTk1Ljg3OEg2NHoiIGZpbGw9IiNGMTY1MjkiLz48cGF0aCBkPSJNNjQgNTIuNDU1SDQ1Ljc4OEw0NC41MyAzOC4zNjFINjRWMjQuNTk5SDI5LjQ4OWwuMzMgMy42OTIgMy4zODIgMzcuOTI3SDY0em0wIDM1Ljc0M2wtLjA2MS4wMTctMTUuMzI3LTQuMTQtLjk3OS0xMC45NzVIMzMuODE2bDEuOTI4IDIxLjYwOSAyOC4xOTMgNy44MjYuMDYzLS4wMTd6IiBmaWxsPSIjRUJFQkVCIi8+PHBhdGggZD0iTTYzLjk1MiA1Mi40NTV2MTMuNzYzaDE2Ljk0N2wtMS41OTcgMTcuODQ5LTE1LjM1IDQuMTQzdjE0LjMxOWwyOC4yMTUtNy44Mi4yMDctMi4zMjUgMy4yMzQtMzYuMjMzLjMzNS0zLjY5NmgtMy43MDh6bTAtMjcuODU2djEzLjc2MmgzMy4yNDRsLjI3Ni0zLjA5Mi42MjgtNi45NzguMzI5LTMuNjkyeiIgZmlsbD0iI2ZmZiIvPjwvc3ZnPg==;" parent="10" vertex="1">
                    <mxGeometry x="10" y="120" width="80" height="80" as="geometry"/>
                </mxCell>
                <mxCell id="7" value="" style="shape=image;verticalLabelPosition=bottom;labelBackgroundColor=default;verticalAlign=top;aspect=fixed;imageAspect=0;image=data:image/svg+xml,PHN2ZyB4bWxucz0iaHR0cDovL3d3dy53My5vcmcvMjAwMC9zdmciIHZpZXdCb3g9IjAgMCAxMjggMTI4Ij48cGF0aCBkPSJNMTguODE0IDExNC4xMjNMOC43NiAxLjM1MmgxMTAuNDhsLTEwLjA2NCAxMTIuNzU0LTQ1LjI0MyAxMi41NDMtNDUuMTE5LTEyLjUyNnoiIGZpbGw9IiMxNTcyQjYiLz48cGF0aCBkPSJNNjQuMDAxIDExNy4wNjJsMzYuNTU5LTEwLjEzNiA4LjYwMS05Ni4zNTRoLTQ1LjE2djEwNi40OXoiIGZpbGw9IiMzM0E5REMiLz48cGF0aCBkPSJNNjQuMDAxIDUxLjQyOWgxOC4zMDJsMS4yNjQtMTQuMTYzSDY0LjAwMVYyMy40MzVoMzQuNjgybC0uMzMyIDMuNzExLTMuNCAzOC4xMTRoLTMwLjk1VjUxLjQyOXoiIGZpbGw9IiNmZmYiLz48cGF0aCBkPSJNNjQuMDgzIDg3LjM0OWwtLjA2MS4wMTgtMTUuNDAzLTQuMTU5LS45ODUtMTEuMDMxSDMzLjc1MmwxLjkzNyAyMS43MTcgMjguMzMxIDcuODYzLjA2My0uMDE4di0xNC4zOXoiIGZpbGw9IiNFQkVCRUIiLz48cGF0aCBkPSJNODEuMTI3IDY0LjY3NWwtMS42NjYgMTguNTIyLTE1LjQyNiA0LjE2NHYxNC4zOWwyOC4zNTQtNy44NTguMjA4LTIuMzM3IDIuNDA2LTI2Ljg4MUg4MS4xMjd6IiBmaWxsPSIjZmZmIi8+PHBhdGggZD0iTTY0LjA0OCAyMy40MzV2MTMuODMxSDMwLjY0bC0uMjc3LTMuMTA4LS42My03LjAxMi0uMzMxLTMuNzExaDM0LjY0NnptLS4wNDcgMjcuOTk2djEzLjgzMUg0OC43OTJsLS4yNzctMy4xMDgtLjYzMS03LjAxMi0uMzMtMy43MTFoMTYuNDQ3eiIgZmlsbD0iI0VCRUJFQiIvPjwvc3ZnPg==;" parent="10" vertex="1">
                    <mxGeometry x="100" y="120" width="80" height="80" as="geometry"/>
                </mxCell>
                <mxCell id="8" value="" style="shape=image;verticalLabelPosition=bottom;labelBackgroundColor=default;verticalAlign=top;aspect=fixed;imageAspect=0;image=data:image/svg+xml,PHN2ZyB4bWxucz0iaHR0cDovL3d3dy53My5vcmcvMjAwMC9zdmciIHZpZXdCb3g9IjAgMCAxMjggMTI4Ij48cGF0aCBkPSJNMS40MDggMS40MDhoMTI1LjE4NHYxMjUuMTg1SDEuNDA4eiIgZmlsbD0iI0YwREI0RiIvPjxwYXRoIGQ9Ik0xMTYuMzQ3IDk2LjczNmMtLjkxNy01LjcxMS00LjY0MS0xMC41MDgtMTUuNjcyLTE0Ljk4MS0zLjgzMi0xLjc2MS04LjEwNC0zLjAyMi05LjM3Ny01LjkyNi0uNDUyLTEuNjktLjUxMi0yLjY0Mi0uMjI2LTMuNjY1LjgyMS0zLjMyIDQuNzg0LTQuMzU1IDcuOTI1LTMuNDAzIDIuMDIzLjY3OCAzLjkzOCAyLjIzNyA1LjA5MyA0LjcyNCA1LjQwMi0zLjQ5OCA1LjM5MS0zLjQ3NSA5LjE2My01Ljg3OS0xLjM4MS0yLjE0MS0yLjExOC0zLjEyOS0zLjAyMi00LjA0NS0zLjI0OS0zLjYyOS03LjY3Ni01LjQ5OC0xNC43NTYtNS4zNTVsLTMuNjg4LjQ3N2MtMy41MzQuODkzLTYuOTAyIDIuNzQ4LTguODc3IDUuMjM1LTUuOTI2IDYuNzI0LTQuMjM2IDE4LjQ5MiAyLjk3NSAyMy4zMzUgNy4xMDQgNS4zMzIgMTcuNTQgNi41NDUgMTguODczIDExLjUzMSAxLjI5NyA2LjEwNC00LjQ4NiA4LjA4LTEwLjIzNCA3LjM3OC00LjIzNi0uODgxLTYuNTkyLTMuMDM0LTkuMTM5LTYuOTQ5LTQuNjg4IDIuNzEzLTQuNjg4IDIuNzEzLTkuNTA4IDUuNDg1IDEuMTQzIDIuNDk5IDIuMzQ0IDMuNjMgNC4yNiA1Ljc5NSA5LjA2OCA5LjE5OCAzMS43NiA4Ljc0NiAzNS44My01LjE3Ni4xNjUtLjQ3OCAxLjI2MS0zLjY2Ni4zOC04LjU4MXpNNjkuNDYyIDU4Ljk0M0g1Ny43NTNsLS4wNDggMzAuMjcyYzAgNi40MzguMzMzIDEyLjM0LS43MTQgMTQuMTQ5LTEuNzEzIDMuNTU4LTYuMTUyIDMuMTE3LTguMTc1IDIuNDI3LTIuMDU5LTEuMDEyLTMuMTA2LTIuNDUxLTQuMzE5LTQuNDg1LS4zMzMtLjU4NC0uNTgzLTEuMDM2LS42NjctMS4wNzFsLTkuNTIgNS44M2MxLjU4MyAzLjI0OSAzLjkxNSA2LjA2OSA2LjkwMiA3LjkwMSA0LjQ2MiAyLjY3OCAxMC40NTkgMy40OTkgMTYuNzMxIDIuMDU5IDQuMDgyLTEuMTg5IDcuNjA0LTMuNjUyIDkuNDQ4LTcuNDAxIDIuNjY2LTQuOTE1IDIuMDk0LTEwLjg2NCAyLjA3LTE3LjQ0NC4wNi0xMC43MzUuMDAxLTIxLjQ2OC4wMDEtMzIuMjM3eiIgZmlsbD0iIzMyMzMzMCIvPjwvc3ZnPg==;" parent="10" vertex="1">
                    <mxGeometry x="55" y="220" width="70" height="70" as="geometry"/>
                </mxCell>
                <mxCell id="12" value="" style="group" parent="1" vertex="1" connectable="0">
                    <mxGeometry x="200" y="630" width="190" height="220" as="geometry"/>
                </mxCell>
                <mxCell id="9" value="VCS" style="shape=agent;offsetSize=8;strokeWidth=2;verticalAlign=bottom;" parent="12" vertex="1">
                    <mxGeometry width="190" height="220" as="geometry"/>
                </mxCell>
                <mxCell id="11" value="" style="shape=image;verticalLabelPosition=bottom;labelBackgroundColor=default;verticalAlign=top;aspect=fixed;imageAspect=0;image=data:image/svg+xml,PHN2ZyB4bWxucz0iaHR0cDovL3d3dy53My5vcmcvMjAwMC9zdmciIHZpZXdCb3g9IjAgMCAxMjggMTI4Ij48ZyBmaWxsPSIjMTgxNjE2Ij48cGF0aCBkPSJNNjQgNS4xMDNjLTMzLjM0NyAwLTYwLjM4OCAyNy4wMzUtNjAuMzg4IDYwLjM4OCAwIDI2LjY4MiAxNy4zMDMgNDkuMzE3IDQxLjI5NyA1Ny4zMDMgMy4wMTcuNTYgNC4xMjUtMS4zMSA0LjEyNS0yLjkwNSAwLTEuNDQtLjA1Ni02LjE5Ny0uMDgyLTExLjI0My0xNi44IDMuNjUzLTIwLjM0NS03LjEyNS0yMC4zNDUtNy4xMjUtMi43NDctNi45OC02LjcwNS04LjgzNi02LjcwNS04LjgzNi01LjQ4LTMuNzQ4LjQxMy0zLjY3LjQxMy0zLjY3IDYuMDYzLjQyNSA5LjI1NyA2LjIyMyA5LjI1NyA2LjIyMyA1LjM4NiA5LjIzIDE0LjEyNyA2LjU2MiAxNy41NzMgNS4wMi41NDItMy45MDMgMi4xMDctNi41NjggMy44MzQtOC4wNzYtMTMuNDEzLTEuNTI1LTI3LjUxNC02LjcwNC0yNy41MTQtMjkuODQzIDAtNi41OTMgMi4zNi0xMS45OCA2LjIyMy0xNi4yMS0uNjI4LTEuNTItMi42OTUtNy42NjIuNTg0LTE1Ljk4IDAgMCA1LjA3LTEuNjIzIDE2LjYxIDYuMTlDNTMuNyAzNSA1OC44NjcgMzQuMzI3IDY0IDM0LjMwNGM1LjEzLjAyMyAxMC4zLjY5NCAxNS4xMjcgMi4wMzMgMTEuNTI2LTcuODEzIDE2LjU5LTYuMTkgMTYuNTktNi4xOSAzLjI4NyA4LjMxNyAxLjIyIDE0LjQ2LjU5MyAxNS45OCAzLjg3MiA0LjIzIDYuMjE1IDkuNjE3IDYuMjE1IDE2LjIxIDAgMjMuMTk0LTE0LjEyNyAyOC4zLTI3LjU3NCAyOS43OTYgMi4xNjcgMS44NzQgNC4wOTcgNS41NSA0LjA5NyAxMS4xODMgMCA4LjA4LS4wNyAxNC41ODMtLjA3IDE2LjU3MiAwIDEuNjA3IDEuMDg4IDMuNDkgNC4xNDggMi44OTcgMjMuOTgtNy45OTQgNDEuMjYzLTMwLjYyMiA0MS4yNjMtNTcuMjk0QzEyNC4zODggMzIuMTQgOTcuMzUgNS4xMDQgNjQgNS4xMDR6IiBjbGlwLXJ1bGU9ImV2ZW5vZGQiIGZpbGwtcnVsZT0iZXZlbm9kZCIvPjxwYXRoIGQ9Ik0yNi40ODQgOTEuODA2Yy0uMTMzLjMtLjYwNS4zOS0xLjAzNS4xODUtLjQ0LS4xOTYtLjY4NS0uNjA1LS41NDMtLjkwNi4xMy0uMzEuNjAzLS4zOTUgMS4wNC0uMTg4LjQ0LjE5Ny42OS42MS41MzcuOTF6bTIuNDQ2IDIuNzI5Yy0uMjg3LjI2Ny0uODUuMTQzLTEuMjMyLS4yOC0uMzk2LS40Mi0uNDctLjk4My0uMTc3LTEuMjU0LjI5OC0uMjY2Ljg0NC0uMTQgMS4yNC4yOC4zOTQuNDI2LjQ3Mi45ODQuMTcgMS4yNTV6TTMxLjMxMiA5OC4wMTJjLS4zNy4yNTgtLjk3Ni4wMTctMS4zNS0uNTItLjM3LS41MzgtLjM3LTEuMTgzLjAxLTEuNDQuMzczLS4yNTguOTctLjAyNSAxLjM1LjUwNy4zNjguNTQ1LjM2OCAxLjE5LS4wMSAxLjQ1MnptMy4yNjEgMy4zNjFjLS4zMy4zNjUtMS4wMzYuMjY3LTEuNTUyLS4yMy0uNTI3LS40ODctLjY3NC0xLjE4LS4zNDMtMS41NDQuMzM2LS4zNjYgMS4wNDUtLjI2NCAxLjU2NC4yMy41MjcuNDg2LjY4NiAxLjE4LjMzMyAxLjU0M3ptNC41IDEuOTUxYy0uMTQ3LjQ3My0uODI1LjY4OC0xLjUxLjQ4Ni0uNjgzLS4yMDctMS4xMy0uNzYtLjk5LTEuMjM4LjE0LS40NzcuODIzLS43IDEuNTEyLS40ODUuNjgzLjIwNiAxLjEzLjc1Ni45ODggMS4yMzd6bTQuOTQzLjM2MWMuMDE3LjQ5OC0uNTYzLjkxLTEuMjguOTItLjcyMy4wMTctMS4zMDgtLjM4Ny0xLjMxNS0uODc3IDAtLjUwMy41NjgtLjkxIDEuMjktLjkyNC43MTctLjAxMyAxLjMwNi4zODcgMS4zMDYuODh6bTQuNTk4LS43ODJjLjA4Ni40ODUtLjQxMy45ODQtMS4xMjYgMS4xMTctLjcuMTMtMS4zNS0uMTcyLTEuNDQtLjY1My0uMDg2LS40OTguNDIyLS45OTcgMS4xMjItMS4xMjYuNzE0LS4xMjMgMS4zNTQuMTcgMS40NDQuNjYzem0wIDAiLz48L2c+PC9zdmc+;" parent="12" vertex="1">
                    <mxGeometry x="44.705882352941174" y="61.707317073170735" width="96.58536585365854" height="96.58536585365854" as="geometry"/>
                </mxCell>
                <mxCell id="35" value="" style="group" parent="1" vertex="1" connectable="0">
                    <mxGeometry x="550" y="350" width="390" height="420" as="geometry"/>
                </mxCell>
                <mxCell id="25" value="Backend" style="shape=agent;offsetSize=8;strokeWidth=2;pointerEvents=0;align=center;verticalAlign=bottom;fontFamily=Helvetica;fontSize=12;" parent="35" vertex="1">
                    <mxGeometry width="389.99999999999994" height="420" as="geometry"/>
                </mxCell>
                <mxCell id="27" value="" style="group" parent="35" vertex="1" connectable="0">
                    <mxGeometry x="19.608938547486034" y="236.9230769230769" width="163.40782122905026" height="137.84615384615384" as="geometry"/>
                </mxCell>
                <mxCell id="26" value="Virtualization" style="shape=agent;offsetSize=8;strokeWidth=2;pointerEvents=0;align=center;verticalAlign=bottom;fontFamily=Helvetica;fontSize=12;" parent="27" vertex="1">
                    <mxGeometry y="8.615384615384615" width="163.40782122905026" height="129.23076923076923" as="geometry"/>
                </mxCell>
                <mxCell id="17" value="" style="shape=image;verticalLabelPosition=bottom;labelBackgroundColor=default;verticalAlign=top;aspect=fixed;imageAspect=0;image=data:image/svg+xml,PHN2ZyB4bWxucz0iaHR0cDovL3d3dy53My5vcmcvMjAwMC9zdmciIHZpZXdCb3g9IjAgMCAxMjggMTI4Ij48cGF0aCBkPSJNNzMuOCA1MC44aDExLjN2MTEuNWg1LjdjMi42IDAgNS4zLS41IDcuOC0xLjMgMS4yLS40IDIuNi0xIDMuOC0xLjctMS42LTIuMS0yLjQtNC43LTIuNi03LjMtLjMtMy41LjQtOC4xIDIuOC0xMC44bDEuMi0xLjQgMS40IDEuMWMzLjYgMi45IDYuNSA2LjggNy4xIDExLjQgNC4zLTEuMyA5LjMtMSAxMy4xIDEuMmwxLjUuOS0uOCAxLjZjLTMuMiA2LjItOS45IDguMi0xNi40IDcuOC05LjggMjQuMy0zMSAzNS44LTU2LjggMzUuOC0xMy4zIDAtMjUuNS01LTMyLjUtMTYuOGwtLjEtLjItMS0yLjFjLTIuNC01LjItMy4xLTEwLjktMi42LTE2LjZsLjItMS43aDkuNlY1MC44aDExLjNWMzkuNmgyMi41VjI4LjNoMTMuNXYyMi41eiIgZmlsbD0iIzNBNEQ1NCIgY2xpcC1ydWxlPSJldmVub2RkIiBmaWxsLXJ1bGU9ImV2ZW5vZGQiLz48cGF0aCBkPSJNMTEwLjQgNTUuMWMuOC01LjktMy42LTEwLjUtNi40LTEyLjctMy4xIDMuNi0zLjYgMTMuMiAxLjMgMTcuMi0yLjggMi40LTguNSA0LjctMTQuNSA0LjdIMTguNmMtLjYgNi4yLjUgMTEuOSAzIDE2LjhsLjggMS41Yy41LjkgMS4xIDEuNyAxLjcgMi42IDMgLjIgNS43LjMgOC4yLjIgNC45LS4xIDguOS0uNyAxMi0xLjcuNS0uMi45LjEgMS4xLjUuMi41LS4xLjktLjUgMS4xLS40LjEtLjguMy0xLjMuNC0yLjQuNy01IDEuMS04LjMgMS4zaC0uNmMtMS4zLjEtMi43LjEtNC4yLjEtMS42IDAtMy4xIDAtNC45LS4xIDYgNi44IDE1LjQgMTAuOCAyNy4yIDEwLjggMjUgMCA0Ni4yLTExLjEgNTUuNS0zNS45IDYuNy43IDEzLjEtMSAxNi02LjctNC41LTIuNy0xMC41LTEuOC0xMy45LS4xeiIgZmlsbD0iIzAwQUFEQSIvPjxwYXRoIGQ9Ik0xMTAuNCA1NS4xYy44LTUuOS0zLjYtMTAuNS02LjQtMTIuNy0zLjEgMy42LTMuNiAxMy4yIDEuMyAxNy4yLTIuOCAyLjQtOC41IDQuNy0xNC41IDQuN2gtNjhjLS4zIDkuNSAzLjIgMTYuNyA5LjUgMjEgNC45LS4xIDguOS0uNyAxMi0xLjcuNS0uMi45LjEgMS4xLjUuMi41LS4xLjktLjUgMS4xLS40LjEtLjguMy0xLjMuNC0yLjQuNy01LjIgMS4yLTguNSAxLjRsLS4xLS4xYzguNSA0LjQgMjAuOCA0LjMgMzUtMS4xIDE1LjgtNi4xIDMwLjYtMTcuNyA0MC45LTMwLjktLjIuMS0uNC4xLS41LjJ6IiBmaWxsPSIjMjhCOEVCIi8+PHBhdGggZD0iTTE4LjcgNzEuOGMuNCAzLjMgMS40IDYuNCAyLjkgOS4zbC44IDEuNWMuNS45IDEuMSAxLjcgMS43IDIuNiAzIC4yIDUuNy4zIDguMi4yIDQuOS0uMSA4LjktLjcgMTItMS43LjUtLjIuOS4xIDEuMS41LjIuNS0uMS45LS41IDEuMS0uNC4xLS44LjMtMS4zLjQtMi40LjctNS4yIDEuMi04LjUgMS40aC0uNGMtMS4zLjEtMi43LjEtNC4xLjEtMS42IDAtMy4yIDAtNC45LS4xIDYgNi44IDE1LjUgMTAuOCAyNy4zIDEwLjggMjEuNCAwIDQwLTguMSA1MC44LTI2SDE4Ljd2LS4xeiIgZmlsbD0iIzAyOEJCOCIvPjxwYXRoIGQ9Ik0yMy41IDcxLjhjMS4zIDUuOCA0LjMgMTAuNCA4LjggMTMuNSA0LjktLjEgOC45LS43IDEyLTEuNy41LS4yLjkuMSAxLjEuNS4yLjUtLjEuOS0uNSAxLjEtLjQuMS0uOC4zLTEuMy40LTIuNC43LTUuMiAxLjItOC42IDEuNCA4LjUgNC40IDIwLjggNC4zIDM0LjktMS4xIDguNS0zLjMgMTYuOC04LjIgMjQuMi0xNC4xSDIzLjV6IiBmaWxsPSIjMDE5QkM2Ii8+PHBhdGggZD0iTTI4LjQgNTIuN2g5Ljh2OS44aC05Ljh2LTkuOHptLjguOGguOHY4LjFoLS44di04LjF6bTEuNCAwaC44djguMWgtLjh2LTguMXptMS41IDBoLjh2OC4xaC0uOHYtOC4xem0xLjUgMGguOHY4LjFoLS44di04LjF6bTEuNSAwaC44djguMWgtLjh2LTguMXptMS41IDBoLjh2OC4xaC0uOHYtOC4xem0zLTEyaDkuOHY5LjhoLTkuOHYtOS44em0uOS44aC44djguMWgtLjh2LTguMXptMS40IDBoLjh2OC4xaC0uOHYtOC4xem0xLjUgMGguOHY4LjFoLS44di04LjF6bTEuNSAwaC44djguMWgtLjh2LTguMXptMS40IDBoLjh2OC4xaC0uOHYtOC4xem0xLjUgMGguOHY4LjFoLS44di04LjF6IiBmaWxsPSIjMDBBQ0QzIiBjbGlwLXJ1bGU9ImV2ZW5vZGQiIGZpbGwtcnVsZT0iZXZlbm9kZCIvPjxwYXRoIGQ9Ik0zOS42IDUyLjdoOS44djkuOGgtOS44di05Ljh6bS45LjhoLjh2OC4xaC0uOHYtOC4xem0xLjQgMGguOHY4LjFoLS44di04LjF6bTEuNSAwaC44djguMWgtLjh2LTguMXptMS41IDBoLjh2OC4xaC0uOHYtOC4xem0xLjQgMGguOHY4LjFoLS44di04LjF6bTEuNSAwaC44djguMWgtLjh2LTguMXoiIGZpbGw9IiMyM0MyRUUiIGNsaXAtcnVsZT0iZXZlbm9kZCIgZmlsbC1ydWxlPSJldmVub2RkIi8+PHBhdGggZD0iTTUwLjkgNTIuN2g5Ljh2OS44aC05Ljh2LTkuOHptLjguOGguOHY4LjFoLS44di04LjF6bTEuNSAwaC44djguMWgtLjh2LTguMXptMS41IDBoLjh2OC4xaC0uOHYtOC4xem0xLjQgMGguOHY4LjFoLS44di04LjF6bTEuNSAwaC44djguMWgtLjh2LTguMXptMS41IDBoLjh2OC4xaC0uOHYtOC4xeiIgZmlsbD0iIzAwQUNEMyIgY2xpcC1ydWxlPSJldmVub2RkIiBmaWxsLXJ1bGU9ImV2ZW5vZGQiLz48cGF0aCBkPSJNNTAuOSA0MS41aDkuOHY5LjhoLTkuOHYtOS44em0uOC44aC44djguMWgtLjh2LTguMXptMS41IDBoLjh2OC4xaC0uOHYtOC4xem0xLjUgMGguOHY4LjFoLS44di04LjF6bTEuNCAwaC44djguMWgtLjh2LTguMXptMS41IDBoLjh2OC4xaC0uOHYtOC4xem0xLjUgMGguOHY4LjFoLS44di04LjF6bTMuMSAxMC40SDcydjkuOGgtOS44di05Ljh6bS44LjhoLjh2OC4xSDYzdi04LjF6bTEuNSAwaC44djguMWgtLjh2LTguMXptMS40IDBoLjh2OC4xaC0uOHYtOC4xem0xLjUgMGguOHY4LjFoLS44di04LjF6bTEuNSAwaC44djguMWgtLjh2LTguMXptMS41IDBoLjh2OC4xaC0uOHYtOC4xeiIgZmlsbD0iIzIzQzJFRSIgY2xpcC1ydWxlPSJldmVub2RkIiBmaWxsLXJ1bGU9ImV2ZW5vZGQiLz48cGF0aCBkPSJNNjIuMiA0MS41SDcydjkuOGgtOS44di05Ljh6bS44LjhoLjh2OC4xSDYzdi04LjF6bTEuNSAwaC44djguMWgtLjh2LTguMXptMS40IDBoLjh2OC4xaC0uOHYtOC4xem0xLjUgMGguOHY4LjFoLS44di04LjF6bTEuNSAwaC44djguMWgtLjh2LTguMXptMS41IDBoLjh2OC4xaC0uOHYtOC4xeiIgZmlsbD0iIzAwQUNEMyIgY2xpcC1ydWxlPSJldmVub2RkIiBmaWxsLXJ1bGU9ImV2ZW5vZGQiLz48cGF0aCBkPSJNNjIuMiAzMC4ySDcyVjQwaC05Ljh2LTkuOHptLjguOGguOHY4LjFINjNWMzF6bTEuNSAwaC44djguMWgtLjhWMzF6bTEuNCAwaC44djguMWgtLjhWMzF6bTEuNSAwaC44djguMWgtLjhWMzF6bTEuNSAwaC44djguMWgtLjhWMzF6bTEuNSAwaC44djguMWgtLjhWMzF6IiBmaWxsPSIjMjNDMkVFIiBjbGlwLXJ1bGU9ImV2ZW5vZGQiIGZpbGwtcnVsZT0iZXZlbm9kZCIvPjxwYXRoIGQ9Ik03My41IDUyLjdoOS44djkuOGgtOS44di05Ljh6bS44LjhoLjh2OC4xaC0uOHYtOC4xem0xLjQgMGguOHY4LjFoLS44di04LjF6bTEuNSAwaC44djguMWgtLjh2LTguMXptMS41IDBoLjh2OC4xaC0uOHYtOC4xem0xLjUgMGguOHY4LjFoLS44di04LjF6bTEuNSAwaC44djguMWgtLjh2LTguMXoiIGZpbGw9IiMwMEFDRDMiIGNsaXAtcnVsZT0iZXZlbm9kZCIgZmlsbC1ydWxlPSJldmVub2RkIi8+PHBhdGggZD0iTTQ4LjggNzguM2MxLjUgMCAyLjcgMS4yIDIuNyAyLjcgMCAxLjUtMS4yIDIuNy0yLjcgMi43LTEuNSAwLTIuNy0xLjItMi43LTIuNyAwLTEuNSAxLjItMi43IDIuNy0yLjciIGZpbGw9IiNENEVFRjEiIGNsaXAtcnVsZT0iZXZlbm9kZCIgZmlsbC1ydWxlPSJldmVub2RkIi8+PHBhdGggZD0iTTQ4LjggNzkuMWMuMiAwIC41IDAgLjcuMS0uMi4xLS40LjQtLjQuNyAwIC40LjQuOC44LjguMyAwIC42LS4yLjctLjQuMS4yLjEuNS4xLjcgMCAxLjEtLjkgMS45LTEuOSAxLjktMS4xIDAtMS45LS45LTEuOS0xLjkgMC0xIC44LTEuOSAxLjktMS45TTEuMSA3Mi44aDEyNS40Yy0yLjctLjctOC42LTEuNi03LjctNS4yLTUgNS43LTE2LjkgNC0yMCAxLjItMy40IDQuOS0yMyAzLTI0LjMtLjgtNC4yIDUtMTcuMyA1LTIxLjUgMC0xLjQgMy44LTIxIDUuNy0yNC4zLjgtMyAyLjgtMTUgNC41LTIwLTEuMiAxLjEgMy41LTQuOSA0LjUtNy42IDUuMiIgZmlsbD0iIzNBNEQ1NCIgY2xpcC1ydWxlPSJldmVub2RkIiBmaWxsLXJ1bGU9ImV2ZW5vZGQiLz48cGF0aCBkPSJNNTYgOTcuOGMtNi43LTMuMi0xMC4zLTcuNS0xMi40LTEyLjItMi41LjctNS41IDEuMi04LjkgMS40LTEuMy4xLTIuNy4xLTQuMS4xLTEuNyAwLTMuNCAwLTUuMi0uMSA2IDYgMTMuNiAxMC43IDI3LjUgMTAuOEg1NnoiIGZpbGw9IiNCRkRCRTAiLz48cGF0aCBkPSJNNDYuMSA4OS45Yy0uOS0xLjMtMS44LTIuOC0yLjUtNC4zLTIuNS43LTUuNSAxLjItOC45IDEuNCAyLjMgMS4yIDUuNyAyLjQgMTEuNCAyLjl6IiBmaWxsPSIjRDRFRUYxIi8+PC9zdmc+;" parent="27" vertex="1">
                    <mxGeometry x="10.893854748603351" width="137.84615384615384" height="137.84615384615384" as="geometry"/>
                </mxCell>
                <mxCell id="31" value="" style="group" parent="35" vertex="1" connectable="0">
                    <mxGeometry x="204.804469273743" y="247.69230769230768" width="163.40782122905026" height="129.23076923076923" as="geometry"/>
                </mxCell>
                <mxCell id="28" value="Message Broker" style="shape=agent;offsetSize=8;strokeWidth=2;pointerEvents=0;align=center;verticalAlign=bottom;fontFamily=Helvetica;fontSize=12;" parent="31" vertex="1">
                    <mxGeometry width="163.40782122905026" height="129.23076923076923" as="geometry"/>
                </mxCell>
                <mxCell id="30" value="" style="shape=image;verticalLabelPosition=bottom;labelBackgroundColor=default;verticalAlign=top;aspect=fixed;imageAspect=0;image=data:image/svg+xml,PHN2ZyB4bWxucz0iaHR0cDovL3d3dy53My5vcmcvMjAwMC9zdmciIHZpZXdCb3g9IjAgMCAxMjggMTI4Ij48cGF0aCBkPSJNMTE5LjUxNyA1MS4xODhINzkuMjkxYTMuNjQxIDMuNjQxIDAgMCAxLTMuNjQtMy42NDJWNS42MkE1LjYwNSA1LjYwNSAwIDAgMCA3MC4wMjggMEg1NS42NmE1LjYwNiA1LjYwNiAwIDAgMC01LjYyNyA1LjYydjQxLjY0NmEzLjkxMyAzLjkxMyAwIDAgMS0zLjkyIDMuOTI1bC0xMy4xODguMDQ3Yy0yLjE3NiAwLTMuOTcyLTEuNzUtMy45MjYtMy45MjZsLjA5NC00MS42ODdBNS42MDYgNS42MDYgMCAwIDAgMjMuNDY3IDBIOS4xYTUuNjEgNS42MSAwIDAgMC01LjYyNiA1LjYyNVYxMjIuOTljMCAyLjczNyAyLjIyIDUuMDEgNS4wMSA1LjAxaDExMS4wMzNhNS4wMTQgNS4wMTQgMCAwIDAgNS4wMDgtNS4wMTFWNTYuMTk1YTQuOTc1IDQuOTc1IDAgMCAwLTUuMDA4LTUuMDA3ek0xMDAuNjYgOTUuMjQyYTYuNTQ1IDYuNTQ1IDAgMCAxLTYuNTI1IDYuNTI0SDgyLjc5MWE2LjU0NSA2LjU0NSAwIDAgMS02LjUyMy02LjUyNFY4My45YTYuNTQ1IDYuNTQ1IDAgMCAxIDYuNTIzLTYuNTI0aDExLjM0M2E2LjU0NSA2LjU0NSAwIDAgMSA2LjUyNSA2LjUyM3ptMCAwIiBmaWxsPSIjZmY2NjAwIi8+PC9zdmc+;" parent="31" vertex="1">
                    <mxGeometry x="34.4016465745369" y="9.23076923076923" width="93.52226720647772" height="93.52226720647772" as="geometry"/>
                </mxCell>
                <mxCell id="34" value="" style="group" parent="35" vertex="1" connectable="0">
                    <mxGeometry x="19.608938547486034" y="32.30769230769231" width="348.60335195530723" height="193.84615384615384" as="geometry"/>
                </mxCell>
                <mxCell id="33" value="Logic" style="shape=agent;offsetSize=8;strokeWidth=2;pointerEvents=0;align=center;verticalAlign=bottom;fontFamily=Helvetica;fontSize=12;" parent="34" vertex="1">
                    <mxGeometry width="348.60335195530723" height="193.84615384615384" as="geometry"/>
                </mxCell>
                <mxCell id="15" value="" style="shape=image;verticalLabelPosition=bottom;labelBackgroundColor=default;verticalAlign=top;aspect=fixed;imageAspect=0;image=data:image/svg+xml,PHN2ZyB4bWxucz0iaHR0cDovL3d3dy53My5vcmcvMjAwMC9zdmciIHZpZXdCb3g9IjAgMCAxMjggMTI4Ij48cGF0aCBkPSJNNDcuNjE3IDk4LjEycy00Ljc2NyAyLjc3NCAzLjM5NyAzLjcxYzkuODkyIDEuMTMgMTQuOTQ3Ljk2OCAyNS44NDUtMS4wOTIgMCAwIDIuODcxIDEuNzk1IDYuODczIDMuMzUxLTI0LjQzOSAxMC40Ny01NS4zMDgtLjYwNy0zNi4xMTUtNS45Njl6bS0yLjk4OC0xMy42NjVzLTUuMzQ4IDMuOTU5IDIuODIzIDQuODA1YzEwLjU2NyAxLjA5MSAxOC45MSAxLjE4IDMzLjM1NC0xLjYgMCAwIDEuOTkzIDIuMDI1IDUuMTMyIDMuMTMxLTI5LjU0MiA4LjY0LTYyLjQ0Ni42OC00MS4zMDktNi4zMzZ6IiBmaWxsPSIjMDA3NEJEIi8+PHBhdGggZD0iTTY5LjgwMiA2MS4yNzFjNi4wMjUgNi45MzUtMS41OCAxMy4xNy0xLjU4IDEzLjE3czE1LjI4OS03Ljg5MSA4LjI2OS0xNy43NzdjLTYuNTU5LTkuMjE1LTExLjU4Ny0xMy43OTIgMTUuNjM1LTI5LjU4IDAgLjAwMS00Mi43MzEgMTAuNjctMjIuMzI0IDM0LjE4N3oiIGZpbGw9IiNFQTJEMkUiLz48cGF0aCBkPSJNMTAyLjEyMyAxMDguMjI5czMuNTI5IDIuOTEtMy44ODggNS4xNTljLTE0LjEwMiA0LjI3Mi01OC43MDYgNS41Ni03MS4wOTQuMTcxLTQuNDUxLTEuOTM4IDMuODk5LTQuNjI1IDYuNTI2LTUuMTkyIDIuNzM5LS41OTMgNC4zMDMtLjQ4NSA0LjMwMy0uNDg1LTQuOTUzLTMuNDg3LTMyLjAxMyA2Ljg1LTEzLjc0MyA5LjgxNSA0OS44MjEgOC4wNzYgOTAuODE3LTMuNjM3IDc3Ljg5Ni05LjQ2OHpNNDkuOTEyIDcwLjI5NHMtMjIuNjg2IDUuMzg5LTguMDMzIDcuMzQ4YzYuMTg4LjgyOCAxOC41MTguNjM4IDMwLjAxMS0uMzI2IDkuMzktLjc4OSAxOC44MTMtMi40NzQgMTguODEzLTIuNDc0cy0zLjMwOCAxLjQxOS01LjcwNCAzLjA1M2MtMjMuMDQyIDYuMDYxLTY3LjU0NCAzLjIzOC01NC43MzEtMi45NTggMTAuODMyLTUuMjM5IDE5LjY0NC00LjY0MyAxOS42NDQtNC42NDN6bTQwLjY5NyAyMi43NDdjMjMuNDIxLTEyLjE2NyAxMi41OTEtMjMuODYgNS4wMzItMjIuMjg1LTEuODQ4LjM4NS0yLjY3Ny43Mi0yLjY3Ny43MnMuNjg4LTEuMDc5IDItMS41NDNjMTQuOTUzLTUuMjU1IDI2LjQ1MSAxNS41MDMtNC44MjMgMjMuNzI1IDAtLjAwMi4zNTktLjMyNy40NjgtLjYxN3oiIGZpbGw9IiMwMDc0QkQiLz48cGF0aCBkPSJNNzYuNDkxIDEuNTg3Uzg5LjQ1OSAxNC41NjMgNjQuMTg4IDM0LjUxYy0yMC4yNjYgMTYuMDA2LTQuNjIxIDI1LjEzLS4wMDcgMzUuNTU5LTExLjgzMS0xMC42NzMtMjAuNTA5LTIwLjA3LTE0LjY4OC0yOC44MTVDNTguMDQxIDI4LjQyIDgxLjcyMiAyMi4xOTUgNzYuNDkxIDEuNTg3eiIgZmlsbD0iI0VBMkQyRSIvPjxwYXRoIGQ9Ik01Mi4yMTQgMTI2LjAyMWMyMi40NzYgMS40MzcgNTctLjggNTcuODE3LTExLjQzNiAwIDAtMS41NzEgNC4wMzItMTguNTc3IDcuMjMxLTE5LjE4NiAzLjYxMi00Mi44NTQgMy4xOTEtNTYuODg3Ljg3NCAwIC4wMDEgMi44NzUgMi4zODEgMTcuNjQ3IDMuMzMxeiIgZmlsbD0iIzAwNzRCRCIvPjwvc3ZnPg==;" parent="34" vertex="1">
                    <mxGeometry x="5.71480904844766" y="6.0576923076923075" width="146.88524590163934" height="146.88524590163934" as="geometry"/>
                </mxCell>
                <mxCell id="16" value="" style="shape=image;verticalLabelPosition=bottom;labelBackgroundColor=default;verticalAlign=top;aspect=fixed;imageAspect=0;image=data:image/svg+xml,PHN2ZyB4bWxucz0iaHR0cDovL3d3dy53My5vcmcvMjAwMC9zdmciIHZpZXdCb3g9IjAgMCAxMjggMTI4Ij48cGF0aCBmaWxsPSIjNzdiYzFmIiBkPSJNMTE2LjQ1MiA2LjY0M2E1OS4xMDQgNTkuMTA0IDAgMDEtNi44MzcgMTIuMTM2QTY0LjI0OSA2NC4yNDkgMCAwMDY0LjIwNS0uMDI2QzI4Ljk4NC0uMDI2IDAgMjguOTgyIDAgNjQuMjQyYTY0LjMxNiA2NC4zMTYgMCAwMDE5Ljk0NSA0Ni41NjJsMi4zNjggMi4xYTY0LjIyIDY0LjIyIDAgMDA0MS4zNTggMTUuMTIyYzMzLjQ4NyAwIDYxLjYzNy0yNi4yNCA2NC4wMjEtNTkuNjgzIDEuNzUxLTE2LjM3MS0zLjA1MS0zNy4wNzctMTEuMjQtNjEuN3pNMjkuMDY3IDExMS4xN2E1LjUgNS41IDAgMDEtNC4yNjkgMi4wMzRjLTMuMDE4IDAtNS40ODctMi40ODQtNS40ODctNS41MDIgMC0zLjAxNyAyLjQ4NS01LjUwMSA1LjQ4Ny01LjUwMSAxLjI1IDAgMi40ODUuNDMzIDMuNDUyIDEuMjM0IDIuMzUxIDEuOSAyLjcxOCA1LjM4NC44MTcgNy43MzV6bTg3LjExOS0xOS4yMzhjLTE1Ljg0MyAyMS4xMjItNDkuNjggMTQuMDAzLTcxLjM3NiAxNS4wMiAwIDAtMy44NTIuMjM0LTcuNzIxLjg2NyAwIDAgMS40NS0uNjE3IDMuMzM1LTEuMzM0IDE1LjIyNi01LjMwMSAyMi40My02LjMzNSAzMS42ODUtMTEuMDg2IDE3LjQyNy04Ljg2OSAzNC42NTQtMjguMjc0IDM4LjI0LTQ4LjQ2My02LjYzNyAxOS40MjItMjYuNzUgMzYuMTEtNDUuMDc3IDQyLjg5NS0xMi41NTcgNC42MzUtMzUuMjM4IDkuMTM2LTM1LjIzOCA5LjEzNmwtLjkxNy0uNDg0Yy0xNS40NDItNy41MTgtMTUuOTEtNDAuOTc3IDEyLjE1Ny01MS43OCAxMi4yOTEtNC43MzUgMjQuMDQ4LTIuMTM0IDM3LjMyMy01LjMwMiAxNC4xNzUtMy4zNjcgMzAuNTY4LTE0LjAwNCAzNy4yMzgtMjcuODc0IDcuNDcxIDIyLjE5IDE2LjQ2IDU2LjkzMi4zNSA3OC40MDV6Ii8+PC9zdmc+;" parent="34" vertex="1">
                    <mxGeometry x="188.58869859877277" y="30.288461538461537" width="124.2875157629256" height="124.2875157629256" as="geometry"/>
                </mxCell>
                <mxCell id="38" value="" style="shape=useedge;endArrow=none;edgeStyle=none;useSignPosition=up;useSignDirection=east;fontFamily=Helvetica;fontSize=12;fontColor=default;exitX=1;exitY=0.75;exitDx=0;exitDy=0;entryX=-0.005;entryY=0.179;entryDx=0;entryDy=0;entryPerimeter=0;" parent="1" source="3" target="25" edge="1">
                    <mxGeometry width="160" relative="1" as="geometry">
                        <mxPoint x="560" y="550" as="sourcePoint"/>
                        <mxPoint x="720" y="550" as="targetPoint"/>
                    </mxGeometry>
                </mxCell>
                <mxCell id="oE9apW_4GFTy94LG_HyK-45" value="Build/ Run" style="edgeLabel;html=1;align=center;verticalAlign=middle;resizable=0;points=[];" vertex="1" connectable="0" parent="38">
                    <mxGeometry x="-0.0477" y="17" relative="1" as="geometry">
                        <mxPoint x="-15" as="offset"/>
                    </mxGeometry>
                </mxCell>
                <mxCell id="39" value="" style="shape=useedge;endArrow=none;edgeStyle=none;useSignPosition=up;useSignDirection=east;fontFamily=Helvetica;fontSize=12;fontColor=default;exitX=1;exitY=0.25;exitDx=0;exitDy=0;entryX=-0.005;entryY=0.805;entryDx=0;entryDy=0;entryPerimeter=0;" parent="1" source="9" target="25" edge="1">
                    <mxGeometry width="160" relative="1" as="geometry">
                        <mxPoint x="610" y="570" as="sourcePoint"/>
                        <mxPoint x="770" y="570" as="targetPoint"/>
                    </mxGeometry>
                </mxCell>
                <mxCell id="oE9apW_4GFTy94LG_HyK-47" value="Event" style="edgeLabel;html=1;align=center;verticalAlign=middle;resizable=0;points=[];" vertex="1" connectable="0" parent="39">
                    <mxGeometry x="-0.0563" y="21" relative="1" as="geometry">
                        <mxPoint x="-5" y="-3" as="offset"/>
                    </mxGeometry>
                </mxCell>
                <mxCell id="42" value="" style="group" parent="1" vertex="1" connectable="0">
                    <mxGeometry x="1110" y="500" width="190" height="120" as="geometry"/>
                </mxCell>
                <mxCell id="41" value="Database" style="rounded=1;whiteSpace=wrap;html=1;arcSize=60;strokeWidth=2;pointerEvents=0;align=center;verticalAlign=bottom;fontFamily=Helvetica;fontSize=12;" parent="42" vertex="1">
                    <mxGeometry width="190" height="120" as="geometry"/>
                </mxCell>
                <mxCell id="21" value="" style="shape=image;verticalLabelPosition=bottom;labelBackgroundColor=default;verticalAlign=bottom;aspect=fixed;imageAspect=0;image=data:image/svg+xml,PHN2ZyB4bWxucz0iaHR0cDovL3d3dy53My5vcmcvMjAwMC9zdmciIHZpZXdCb3g9IjAgMCAxMjggMTI4Ij48cGF0aCBkPSJNMTE2Ljk0OCA5Ny44MDdjLTYuODYzLS4xODctMTIuMTA0LjQ1Mi0xNi41ODUgMi4zNDEtMS4yNzMuNTM3LTMuMzA1LjU1Mi0zLjUxMyAyLjE0Ny43LjczMy44MDkgMS44MjkgMS4zNjUgMi43MzEgMS4wNyAxLjczIDIuODc2IDQuMDUyIDQuNDg4IDUuMjY4IDEuNzYyIDEuMzMgMy41NzcgMi43NTEgNS40NjUgMy45MDIgMy4zNTggMi4wNDcgNy4xMDcgMy4yMTcgMTAuMzQgNS4yNjggMS45MDYgMS4yMSAzLjc5OSAyLjczMyA1LjY1OCA0LjA5Ny45Mi42NzUgMS41MzcgMS43MjQgMi43MzIgMi4xNDd2LS4xOTRjLS42MjgtLjgtLjc5LTEuODk4LTEuMzY2LTIuNzMzbC0yLjUzNy0yLjUzN2MtMi40OC0zLjI5Mi01LjYyOS02LjE4NC04Ljk3Ni04LjU4NS0yLjY2OS0xLjkxNi04LjY0Mi00LjUwNC05Ljc1NS03LjYwOWwtLjE5NS0uMTk1YzEuODkyLS4yMTQgNC4xMDctLjg5OCA1Ljg1NC0xLjM2NyAyLjkzNC0uNzg2IDUuNTU2LS41ODMgOC41ODUtMS4zNjVsNC4wOTctMS4xNzF2LS43OGMtMS41MzEtMS41NzEtMi42MjMtMy42NTEtNC4yOTItNS4wNzMtNC4zNy0zLjcyLTkuMTM4LTcuNDM3LTE0LjA0OC0xMC41MzctMi43MjQtMS43MTgtNi4wODktMi44MzUtOC45NzYtNC4yOTItLjk3MS0uNDkxLTIuNjc3LS43NDYtMy4zMTgtMS41NjItMS41MTctMS45MzItMi4zNDItNC4zODItMy41MTEtNi42MzMtMi40NDktNC43MTctNC44NTQtOS44NjgtNy4wMjQtMTQuODMxLTEuNDgtMy4zODQtMi40NDctNi43Mi00LjI5My05Ljc1Ni04Ljg2LTE0LjU2Ny0xOC4zOTYtMjMuMzU4LTMzLjE2OS0zMi0zLjE0NC0xLjgzOC02LjkyOS0yLjU2My0xMC45MjktMy41MTMtMi4xNDUtLjEyOS00LjI5Mi0uMjYtNi40MzgtLjM5MS0xLjMxMS0uNTQ2LTIuNjczLTIuMTQ5LTMuOTAyLTIuOTI3QzE3LjgxMSA0LjU2NSA1LjI1Ny0yLjE2IDEuNjMzIDYuNjgyYy0yLjI4OSA1LjU4MSAzLjQyMSAxMS4wMjUgNS40NjIgMTMuODU0IDEuNDM0IDEuOTgyIDMuMjY5IDQuMjA3IDQuMjkzIDYuNDM4LjY3NCAxLjQ2Ny43OSAyLjkzOCAxLjM2NyA0LjQ4OSAxLjQxNyAzLjgyMiAyLjY1MiA3Ljk4IDQuNDg3IDExLjUxMS45MjcgMS43ODggMS45NDkgMy42NyAzLjEyMiA1LjI2OC43MTguOTgxIDEuOTUxIDEuNDEzIDIuMTQ1IDIuOTI3LTEuMjA0IDEuNjg2LTEuMjczIDQuMzA0LTEuOTUgNi40NC0zLjA1IDkuNjE1LTEuODk5IDIxLjU2NyAyLjUzNyAyOC42ODMgMS4zNiAyLjE4NiA0LjU2NyA2Ljg3MSA4Ljk3NSA1LjA3MyAzLjg1Ni0xLjU3IDIuOTk1LTYuNDM4IDQuMDk4LTEwLjczMi4yNDktLjk3My4wOTYtMS42ODkuNTg1LTIuMzQxdi4xOTVsMy41MTMgNy4wMjRjMi42IDQuMTg3IDcuMjEyIDguNTYyIDExLjEyMiAxMS41MTQgMi4wMjcgMS41MzEgMy42MjMgNC4xNzcgNi4yNDQgNS4wNzN2LS4xOTZoLS4xOTVjLS41MDgtLjc5MS0xLjMwMy0xLjExOS0xLjk1MS0xLjc1NS0xLjUyNy0xLjQ5Ny0zLjIyNS0zLjM1OC00LjQ4Ny01LjA3My0zLjU1Ni00LjgyNy02LjY5OC0xMC4xMS05LjU2MS0xNS42MDktMS4zNjgtMi42MjctMi41NTctNS41MjMtMy43MDktOC4xOTYtLjQ0NC0xLjAzLS40MzgtMi41ODktMS4zNjQtMy4xMjItMS4yNjMgMS45NTgtMy4xMjIgMy41NDItNC4wOTggNS44NTQtMS41NjEgMy42OTYtMS43NjIgOC4yMDQtMi4zNDEgMTIuODc4LS4zNDIuMTIyLS4xOS4wMzgtLjM5MS4xOTQtMi43MTgtLjY1NS0zLjY3Mi0zLjQ1Mi00LjY4My01Ljg1My0yLjU1NC02LjA3LTMuMDI5LTE1Ljg0Mi0uNzgxLTIyLjgyOS41ODItMS44MDkgMy4yMS03LjUwMSAyLjE0Ni05LjE3Mi0uNTA4LTEuNjY2LTIuMTg0LTIuNjMtMy4xMjEtMy45MDMtMS4xNjEtMS41NzQtMi4zMTktMy42NDYtMy4xMjQtNS40NjQtMi4wOS00LjczMS0zLjA2Ni0xMC4wNDQtNS4yNjctMTQuODI4LTEuMDUzLTIuMjg3LTIuODMyLTQuNjAyLTQuMjkzLTYuNjM0LTEuNjE3LTIuMjUzLTMuNDI5LTMuOTEyLTQuNjgzLTYuNjM1LS40NDYtLjk2OC0xLjA1MS0yLjUxOC0uMzkxLTMuNTEzLjIxLS42NzEuNTA4LS45NTEgMS4xNzEtMS4xNyAxLjEzMi0uODczIDQuMjg0LjI5IDUuNDYyLjc3OSAzLjEyOSAxLjMgNS43NDEgMi41MzggOC4zOTIgNC4yOTQgMS4yNzEuODQ0IDIuNTU5IDIuNDc1IDQuMDk3IDIuOTI3aDEuNzU2YzIuNzQ3LjYzMSA1LjgyNC4xOTUgOC4zOTEuOTc1IDQuNTM2IDEuMzc4IDguNjAxIDMuNTIzIDEyLjI5MiA1Ljg1NCAxMS4yNDYgNy4xMDIgMjAuNDQyIDE3LjIxIDI2LjczMiAyOS4yNjkgMS4wMTIgMS45NDIgMS40NSAzLjc5NCAyLjM0MSA1Ljg1NCAxLjc5OCA0LjE1MyA0LjA2MyA4LjQyNiA1Ljg1MiAxMi40ODggMS43ODYgNC4wNTIgMy41MjYgOC4xNDEgNi4wNSAxMS41MTMgMS4zMjcgMS43NzIgNi40NTEgMi43MjMgOC43ODEgMy43MDggMS42MzIuNjg5IDQuMzA3IDEuNDA5IDUuODU0IDIuMzQgMi45NTMgMS43ODIgNS44MTUgMy45MDMgOC41ODYgNS44NTUgMS4zODMuOTc1IDUuNjQgMy4xMTYgNS44NTIgNC44Nzl6TTI5LjcyOSAyMy40NjZjLTEuNDMxLS4wMjctMi40NDMuMTU2LTMuNTEzLjM4OXYuMTk1aC4xOTVjLjY4MyAxLjQwMiAxLjg4OCAyLjMwNiAyLjczMSAzLjUxMy42NSAxLjM2NyAxLjMwMSAyLjczMiAxLjk1MiA0LjA5N2wuMTk0LS4xOTNjMS4yMDktLjg1MyAxLjc2Mi0yLjIxNCAxLjc1NS00LjI5NC0uNDg0LS41MDktLjU1NS0xLjE0Ny0uOTc1LTEuNzU1LS41NTYtLjgxMS0xLjYzNS0xLjI3Mi0yLjMzOS0xLjk1MnoiIGZpbGw9IiMwMDYxOEEiLz48L3N2Zz4=;" parent="42" vertex="1">
                    <mxGeometry x="45.22222222222217" y="10.225263157894688" width="99.55555555555556" height="99.55555555555556" as="geometry"/>
                </mxCell>
                <mxCell id="43" value="" style="shape=updateedge;endArrow=none;fontFamily=Helvetica;fontSize=12;fontColor=default;exitX=1;exitY=0.5;exitDx=0;exitDy=0;entryX=0;entryY=0.5;entryDx=0;entryDy=0;" parent="1" source="25" target="41" edge="1">
                    <mxGeometry width="80" height="30" relative="1" as="geometry">
                        <mxPoint x="880" y="695" as="sourcePoint"/>
                        <mxPoint x="960" y="695" as="targetPoint"/>
                    </mxGeometry>
                </mxCell>
                <mxCell id="44" value="Logs/ Timeseries data" style="text;html=1;align=center;verticalAlign=middle;resizable=0;points=[];autosize=1;strokeColor=none;fillColor=none;fontFamily=Helvetica;fontSize=12;fontColor=default;" parent="1" vertex="1">
                    <mxGeometry x="960" y="518" width="140" height="30" as="geometry"/>
                </mxCell>
                <mxCell id="JS0bN1o7Jm5nymaU2YFw-48" value="" style="group" vertex="1" connectable="0" parent="1">
                    <mxGeometry x="680" y="180" width="140" height="140" as="geometry"/>
                </mxCell>
                <mxCell id="JS0bN1o7Jm5nymaU2YFw-44" value="Ops" style="shape=agent;offsetSize=8;strokeWidth=2;verticalAlign=bottom;" vertex="1" parent="JS0bN1o7Jm5nymaU2YFw-48">
                    <mxGeometry width="140" height="140" as="geometry"/>
                </mxCell>
                <mxCell id="JS0bN1o7Jm5nymaU2YFw-45" value="" style="shape=image;verticalLabelPosition=bottom;labelBackgroundColor=default;verticalAlign=top;aspect=fixed;imageAspect=0;image=data:image/svg+xml,PHN2ZyB4bWxucz0iaHR0cDovL3d3dy53My5vcmcvMjAwMC9zdmciIHZpZXdCb3g9IjAgMCAxMjggMTI4Ij48cGF0aCBkPSJNMjYuNjY2IDBDMTEuOTcgMCAwIDExLjk3IDAgMjYuNjY2YzAgMTIuODcgOS4xODEgMjMuNjUxIDIxLjMzNCAyNi4xM3YzNy44N2MwIDExLjc3IDkuNjggMjEuMzM0IDIxLjMzMiAyMS4zMzRoLjE5NWMxLjMwMiA5LjAyMyA5LjEgMTYgMTguNDczIDE2QzcxLjYxMiAxMjggODAgMTE5LjYxMiA4MCAxMDkuMzM0cy04LjM4OC0xOC42NjgtMTguNjY2LTE4LjY2OGMtOS4zNzIgMC0xNy4xNyA2Ljk3Ny0xOC40NzMgMTZoLS4xOTVjLTguNzM3IDAtMTYtNy4xNTItMTYtMTZWNjMuNzc5YTE4LjUxNCAxOC41MTQgMCAwIDAgMTMuMjQgNS41NTVoMi45NTVjMS4zMDMgOS4wMjMgOS4xIDE2IDE4LjQ3MyAxNiA5LjM3MiAwIDE3LjE2OS02Ljk3NyAxOC40Ny0xNmgxMS4wNTdjMS4zMDMgOS4wMjMgOS4xIDE2IDE4LjQ3MyAxNiAxMC4yNzggMCAxOC42NjYtOC4zOSAxOC42NjYtMTguNjY4QzEyOCA1Ni4zODggMTE5LjYxMiA0OCAxMDkuMzM0IDQ4Yy05LjM3MyAwLTE3LjE3MSA2Ljk3Ny0xOC40NzMgMTZINzkuODA1Yy0xLjMwMS05LjAyMy05LjA5OC0xNi0xOC40NzEtMTZzLTE3LjE3MSA2Ljk3Ny0xOC40NzMgMTZoLTIuOTU1Yy02LjQzMyAwLTExLjc5My00LjU4OS0xMi45ODgtMTAuNjcyIDE0LjU4LS4xMzYgMjYuNDE2LTEyLjA1IDI2LjQxNi0yNi42NjJDNTMuMzM0IDExLjk3IDQxLjM2MiAwIDI2LjY2NiAwem0wIDUuMzM0QTIxLjI5MiAyMS4yOTIgMCAwIDEgNDggMjYuNjY2IDIxLjI5NCAyMS4yOTQgMCAwIDEgMjYuNjY2IDQ4IDIxLjI5MiAyMS4yOTIgMCAwIDEgNS4zMzQgMjYuNjY2IDIxLjI5IDIxLjI5IDAgMCAxIDI2LjY2NiA1LjMzNHptLTUuMjE1IDcuNTQxQzE4LjY3IDEyLjg4OSAxNiAxNS4xMjMgMTYgMTguMTY2djE3LjA0M2MwIDQuMDQzIDQuNzA5IDYuNjYzIDguMTQ1IDQuNTMzbDEzLjYzNC04LjQ1NWMzLjI1Ny0yLjAyIDMuMjc0LTcuMDAyLjAzMi05LjA0NWwtMTMuNjM1LTguNTlhNS4wMjQgNS4wMjQgMCAwIDAtMi43MjUtLjc3N3ptLS4xMTcgNS4yOTEgMTMuNjM1IDguNTg4LTEzLjYzNSA4LjQ1NVYxOC4xNjZ6bTQwIDM1LjE2OGExMy4yOSAxMy4yOSAwIDAgMSAxMy4zMzIgMTMuMzMyQTEzLjI5MyAxMy4yOTMgMCAwIDEgNjEuMzM0IDgwIDEzLjI5NCAxMy4yOTQgMCAwIDEgNDggNjYuNjY2YTEzLjI5MyAxMy4yOTMgMCAwIDEgMTMuMzM0LTEzLjMzMnptNDggMGExMy4yOSAxMy4yOSAwIDAgMSAxMy4zMzIgMTMuMzMyQTEzLjI5MyAxMy4yOTMgMCAwIDEgMTA5LjMzNCA4MCAxMy4yOTQgMTMuMjk0IDAgMCAxIDk2IDY2LjY2NmExMy4yOTMgMTMuMjkzIDAgMCAxIDEzLjMzNC0xMy4zMzJ6bS00Mi41NjggNi45NTFhMi42NjcgMi42NjcgMCAwIDAtMS44ODcuNzhsLTYuMyA2LjI5NC0yLjA5My0yLjA4NGEyLjY2NyAyLjY2NyAwIDAgMC0zLjc3MS4wMDYgMi42NjcgMi42NjcgMCAwIDAgLjAwOCAzLjc3MmwzLjk3NCAzLjk2YTIuNjY3IDIuNjY3IDAgMCAwIDMuNzY2LS4wMDFsOC4xODUtOC4xNzRhMi42NjcgMi42NjcgMCAwIDAgLjAwMi0zLjc3MiAyLjY2NyAyLjY2NyAwIDAgMC0xLjg4NC0uNzh6bTQ4IDBhMi42NjcgMi42NjcgMCAwIDAtMS44ODcuNzhsLTYuMyA2LjI5NC0yLjA5My0yLjA4NGEyLjY2NyAyLjY2NyAwIDAgMC0zLjc3MS4wMDYgMi42NjcgMi42NjcgMCAwIDAgLjAwOCAzLjc3MmwzLjk3NCAzLjk2YTIuNjY3IDIuNjY3IDAgMCAwIDMuNzY2LS4wMDFsOC4xODUtOC4xNzRhMi42NjcgMi42NjcgMCAwIDAgLjAwMi0zLjc3MiAyLjY2NyAyLjY2NyAwIDAgMC0xLjg4NC0uNzh6TTYxLjMzNCA5NmExMy4yOTMgMTMuMjkzIDAgMCAxIDEzLjMzMiAxMy4zMzQgMTMuMjkgMTMuMjkgMCAwIDEtMTMuMzMyIDEzLjMzMkExMy4yOTMgMTMuMjkzIDAgMCAxIDQ4IDEwOS4zMzQgMTMuMjk0IDEzLjI5NCAwIDAgMSA2MS4zMzQgOTZ6TTU2IDEwNS4zMzRjLTIuMTkzIDAtNCAxLjgwNy00IDQgMCAyLjE5NSAxLjgwOCA0IDQgNHM0LTEuODA1IDQtNGMwLTIuMTkzLTEuODA3LTQtNC00em0xMC42NjYgMGMtMi4xOTMgMC00IDEuODA3LTQgNCAwIDIuMTk1IDEuODA4IDQgNCA0czQtMS44MDUgNC00YzAtMi4xOTMtMS44MDctNC00LTR6TTU2IDEwOGMuNzUgMCAxLjMzNC41ODUgMS4zMzQgMS4zMzQgMCAuNzUzLS41ODMgMS4zMzItMS4zMzQgMS4zMzItLjc1IDAtMS4zMzQtLjU4LTEuMzM0LTEuMzMyIDAtLjc1LjU4NS0xLjMzNCAxLjMzNC0xLjMzNHptMTAuNjY2IDBjLjc1IDAgMS4zMzQuNTg1IDEuMzM0IDEuMzM0IDAgLjc1My0uNTgzIDEuMzMyLTEuMzM0IDEuMzMyLS43NSAwLTEuMzMyLS41OC0xLjMzMi0xLjMzMiAwLS43NS41ODMtMS4zMzQgMS4zMzItMS4zMzR6IiBmaWxsPSIjMjA4OGZmIi8+PHBhdGggZD0iTTEwOS4zMzQgOTAuNjY2Yy05LjM4MyAwLTE3LjE4OCA2Ljk5My0xOC40NzcgMTYuMDMxYTIuNjY3IDIuNjY3IDAgMCAwLS4yNjUtLjAxMWwtMi43LjA5YTIuNjY3IDIuNjY3IDAgMCAwLTIuNTc4IDIuNzUxIDIuNjY3IDIuNjY3IDAgMCAwIDIuNzUyIDIuNTc4bDIuNy0uMDg3YTIuNjY3IDIuNjY3IDAgMCAwIC4wOTctLjAwNkM5Mi4xNyAxMjEuMDI5IDk5Ljk2NSAxMjggMTA5LjMzNCAxMjhjMTAuMjc4IDAgMTguNjY2LTguMzg4IDE4LjY2Ni0xOC42NjZzLTguMzg4LTE4LjY2OC0xOC42NjYtMTguNjY4em0wIDUuMzM0YTEzLjI5MyAxMy4yOTMgMCAwIDEgMTMuMzMyIDEzLjMzNCAxMy4yOSAxMy4yOSAwIDAgMS0xMy4zMzIgMTMuMzMyQTEzLjI5MyAxMy4yOTMgMCAwIDEgOTYgMTA5LjMzNCAxMy4yOTQgMTMuMjk0IDAgMCAxIDEwOS4zMzQgOTZ6IiBmaWxsPSIjNzliOGZmIi8+PC9zdmc+;" vertex="1" parent="JS0bN1o7Jm5nymaU2YFw-48">
                    <mxGeometry x="23.200000000000045" y="23.19666666666666" width="93.60000000000001" height="93.60000000000001" as="geometry"/>
                </mxCell>
            </root>
        </mxGraphModel>
    </diagram>
</mxfile>